<?xml version="1.0" encoding="utf-8"?>
<!-- Generator: Adobe Illustrator 23.0.0, SVG Export Plug-In . SVG Version: 6.00 Build 0)  -->
<svg version="1.1" id="Layer_1" xmlns="http://www.w3.org/2000/svg" xmlns:xlink="http://www.w3.org/1999/xlink" x="0px" y="0px"
	 viewBox="0 0 498.1 224.1" style="enable-background:new 0 0 498.1 224.1;" xml:space="preserve">
<style type="text/css">
	.st0{fill:#FEFEFE;}
	.st1{fill-rule:evenodd;clip-rule:evenodd;fill:#4D4D4D;}
	.st2{fill-rule:evenodd;clip-rule:evenodd;fill:#E31E24;}
	.st3{fill-rule:evenodd;clip-rule:evenodd;fill:#201E1E;}
	.st4{fill:#201E1E;}
	.st5{font-family:'MyriadPro-Regular';}
	.st6{font-size:28.6008px;}
</style>
<g id="Layer_x0020_1">
	<g id="_2369705821680">
		<g>
			<path class="st0" d="M316.7,118.4l-2.8-23.8l5.4-0.7l2.9,23.8l-2.7,3L316.7,118.4z M322.2,117.7c0.1,1.5-0.9,2.9-2.4,3
				c-1.5,0.1-2.8-0.9-3-2.4L322.2,117.7z M308.1,115.3h11.4v5.5h-11.4l-2.6-3.6L308.1,115.3z M308.1,120.8c-1.6,0-2.7-1.2-2.7-2.7
				c0-1.5,1.2-2.7,2.7-2.7V120.8z M318.1,98.2l-7.4,20.8l-5.2-1.9l7.4-20.8L318.1,98.2L318.1,98.2z M312.9,96.3
				c0.5-1.4,2.1-2.1,3.6-1.6c1.4,0.5,2.1,2.1,1.6,3.5L312.9,96.3z M313.5,94.9l5.1,2l0,0l0,0l-0.1,0.1V97l0,0l-0.1,0.1v0.1l0,0v0.1
				l0,0l-0.1,0.1l0,0v0.1l0,0v0.1h-0.1v0.1l0,0v0.1l0,0v0.1h-0.1v0.1l0,0v0.1l0,0l-0.1,0.1l0,0V98l0,0v0.1h-0.1v0.1l-5.2-1.7v-0.1
				l0,0l0.1-0.1v-0.1v-0.1v-0.1h0.1V96v-0.1v-0.1h0.1v-0.1l0,0v-0.1l0.1-0.1l0,0v-0.1v-0.1h0.1v-0.1l0,0v-0.1v-0.1h0.1v-0.1l0,0
				v-0.1h0.1V95L313.5,94.9L313.5,94.9L313.5,94.9L313.5,94.9z M313.5,94.9c0.5-1.4,2.1-2.1,3.5-1.6c1.5,0.5,2.1,2.1,1.6,3.6
				L313.5,94.9z M313.7,94.1l5.2,1.9l0,0l0,0v0.1h-0.1l0,0l0,0v0.1l0,0l0,0l0,0l0,0v0.1l0,0l0,0l0,0v0.1h-0.1l0,0l0,0v0.1v0.1l0,0
				l0,0l-0.1,0.1l0,0v0.1l0,0v0.1l0,0l-0.1,0.1l0,0v0.1v0.1l-5.1-2l0,0v-0.1l0,0l0,0l0,0v-0.1l0,0l0,0l0,0l0,0l0,0l0.1-0.1l0,0l0,0
				l0,0l0,0v-0.1l0,0l0,0v-0.1l0,0l0,0l0,0l0.1-0.1v-0.1l0,0l0,0v-0.1l0,0L313.7,94.1L313.7,94.1L313.7,94.1L313.7,94.1z
				 M313.7,94.1c0.5-1.4,2.1-2.1,3.5-1.6c1.5,0.4,2.2,2.1,1.7,3.5L313.7,94.1z M313.9,93.5l5,2.3l0,0h-0.1l0,0l0,0h0.1h-0.1l0,0h0.1
				h-0.1h0.1l0,0h-0.1l0,0l0,0l0,0l0,0h0.1h-0.1l0,0l0,0l0,0l0,0l0,0l0,0v0.1l0,0l0,0l0,0l0,0l0,0V96l0,0l0,0l-5.2-1.9l0,0l0,0l0,0
				l0,0v-0.1v0.1v-0.1l0,0l0,0l0,0V94h0.1l0,0l0,0l0,0l0,0v-0.1l0,0v-0.1l0,0h0.1l0,0v-0.1l0,0v-0.1l0,0l0,0L313.9,93.5L313.9,93.5
				L313.9,93.5L313.9,93.5L313.9,93.5L313.9,93.5z M313.9,93.5c0.7-1.4,2.3-2,3.6-1.3c1.4,0.6,2,2.2,1.4,3.6L313.9,93.5z M319.3,94
				l-5.4,0.7l5,1.3h-0.1V96l0,0l-0.1,0.1v0.1h-0.1l0,0v0.1h-0.1v0.1h-0.1h0.1l0.1-0.1l0.1-0.1l0.1-0.1h0.1l0.1-0.1v-0.1l0.1-0.1l0,0
				l0,0v-0.1l0,0v0.1l0,0l0,0l0,0l-0.1,0.1l0,0v0.1l0,0v0.1l-5-2.3v-0.1l0,0h0.1l0,0v-0.1l0,0l0,0l0,0l0,0l0,0v-0.1h0.1v-0.1v-0.1
				l0.1-0.1l0.1-0.1l0,0l0.1-0.1l0.1-0.1l0.1-0.1l0.1-0.1l-0.1,0.1l0,0l-0.1,0.1l0,0l0,0l0,0v0.1h-0.1v0.1v-0.1l0,0L319.3,94z
				 M314.4,92.7c0.9-1.2,2.6-1.6,3.8-0.7c1.2,0.9,1.6,2.6,0.7,3.8L314.4,92.7z M267.7,155.6l-2.1-5l0,0l0.3-0.1l0.2-0.1l0.3-0.1
				l0.3-0.1l0.2-0.1l0.3-0.1l0.3-0.1l0.3-0.1l0.2-0.1l0.3-0.1l0.3-0.1l0.3-0.1l0.3-0.1l0.3-0.1l0.3-0.1l0.3-0.1h0.3l0.3-0.1l0.4-0.1
				h0.3l0.3-0.1l0.3-0.1h0.4l0.3-0.1h0.4h0.3l0.4-0.1h0.4h0.4h0.3h0.4h0.4v5.5h-0.4h-0.3h-0.3h-0.3h-0.3l-0.3,0.1h-0.2h-0.3
				l-0.2,0.1h-0.3h-0.2l-0.2,0.1h-0.3l-0.2,0.1h-0.2l-0.2,0.1l-0.2,0.1h-0.2l-0.2,0.1l-0.2,0.1l-0.2,0.1h-0.1l-0.2,0.1l-0.2,0.1
				l-0.2,0.1l-0.2,0.1l-0.2,0.1l-0.2,0.1l-0.2,0.1l-0.2,0.1l-0.2,0.1L267.7,155.6L267.7,155.6z M267.7,155.6c-1.3,0.6-3,0-3.6-1.4
				c-0.6-1.4,0-3,1.4-3.6L267.7,155.6z M260,161.7l-4.4-3.3l0,0l0.2-0.3l0.3-0.3l0.2-0.3l0.2-0.3l0.3-0.3l0.2-0.3l0.3-0.3l0.3-0.3
				l0.3-0.2l0.3-0.3l0.2-0.3l0.3-0.2l0.4-0.3l0.3-0.2l0.3-0.3l0.3-0.2l0.3-0.3l0.4-0.2l0.3-0.2l0.4-0.2l0.3-0.2l0.4-0.2l0.3-0.2
				l0.4-0.2l0.3-0.2l0.4-0.1l0.4-0.2l0.4-0.2l0.3-0.1l0.4-0.1l0.4-0.2l0.4-0.1l2.1,5l-0.2,0.1l-0.3,0.1l-0.3,0.1l-0.2,0.1l-0.3,0.1
				l-0.2,0.1l-0.3,0.1l-0.3,0.1l-0.2,0.2l-0.3,0.1l-0.3,0.1l-0.2,0.2l-0.3,0.1l-0.2,0.2l-0.3,0.1l-0.2,0.2l-0.2,0.2l-0.3,0.1
				l-0.2,0.2l-0.2,0.2l-0.2,0.2l-0.3,0.2l-0.2,0.2l-0.2,0.2l-0.1,0.2l-0.2,0.2l-0.2,0.2l-0.2,0.2l-0.1,0.2l-0.2,0.2l-0.1,0.2
				L260,161.7L260,161.7z M260,161.7c-0.9,1.2-2.6,1.4-3.8,0.5c-1.3-0.9-1.5-2.6-0.6-3.8L260,161.7z M256.4,171.8h-5.5l0,0v-0.5
				l0.1-0.4v-0.4l0.1-0.4v-0.4l0.1-0.5l0.1-0.4l0.1-0.4l0.1-0.4l0.1-0.4l0.1-0.4l0.1-0.4l0.1-0.4l0.1-0.4l0.1-0.4l0.1-0.4l0.2-0.4
				l0.1-0.4l0.1-0.4l0.2-0.4l0.1-0.4l0.2-0.4l0.2-0.4l0.2-0.4l0.1-0.4l0.2-0.4l0.2-0.4l0.2-0.4l0.3-0.4l0.2-0.4l0.2-0.3l0.2-0.4
				l4.4,3.3l-0.1,0.2l-0.1,0.2l-0.2,0.3l-0.1,0.3l-0.1,0.2l-0.2,0.3l-0.1,0.3l-0.1,0.3l-0.1,0.3l-0.2,0.4l-0.1,0.3l-0.1,0.3
				l-0.1,0.4l-0.1,0.3l-0.1,0.4l-0.1,0.3l-0.1,0.4l-0.1,0.3l-0.1,0.4l-0.1,0.4l-0.1,0.3l-0.1,0.4l-0.1,0.3l-0.1,0.4l-0.1,0.3v0.4
				l-0.1,0.3l-0.1,0.4v0.3v0.3v0.4L256.4,171.8L256.4,171.8z M256.4,171.8c0,1.5-1.2,2.7-2.7,2.7c-1.5,0-2.7-1.3-2.7-2.7H256.4z
				 M257.4,178.4l-5.1,2.1l0,0l-0.1-0.3l-0.1-0.3l-0.1-0.3l-0.1-0.3l-0.1-0.3l-0.1-0.3l-0.1-0.3l-0.1-0.2l-0.1-0.3l-0.1-0.3
				l-0.1-0.3l-0.1-0.2v-0.3l-0.1-0.3v-0.2l-0.1-0.3v-0.2l-0.1-0.3v-0.3v-0.2l-0.1-0.3v-0.2v-0.3v-0.2v-0.3v-0.2l-0.1-0.3v-0.3v-0.2
				v-0.3V172v-0.2h5.5v0.2v0.3v0.2l0.1,0.2v0.3v0.2v0.2v0.2v0.2v0.2v0.1v0.2l0.1,0.2v0.1v0.2l0.1,0.2v0.1v0.2l0.1,0.1v0.2l0.1,0.1
				v0.2l0.1,0.1l0.1,0.2v0.1l0.1,0.2l0.1,0.2l0.1,0.2l0.1,0.1l0.1,0.2l0.1,0.2L257.4,178.4L257.4,178.4z M257.4,178.4
				c0.6,1.4-0.1,3-1.6,3.6c-1.4,0.6-3-0.1-3.6-1.5L257.4,178.4z M255.5,182.5l5.3,1.3l-3.3,2.1l-0.3-0.1l-0.3-0.1l-0.3-0.1l-0.3-0.1
				l-0.3-0.1l-0.3-0.1l-0.2-0.1l-0.3-0.2l-0.2-0.1l-0.2-0.1l-0.2-0.2l-0.2-0.2l-0.2-0.1l-0.1-0.2l-0.2-0.2l-0.1-0.2l-0.1-0.2
				l-0.1-0.2l-0.1-0.2l-0.1-0.1l-0.1-0.2l-0.1-0.2l-0.1-0.1l-0.1-0.2l-0.1-0.1v-0.1l-0.1-0.1l-0.1-0.2l-0.1-0.1v-0.1l-0.1-0.1
				l-0.1-0.1l5.1-2.1l0.1,0.2l0.1,0.1l0.1,0.2l0.1,0.1v0.1l0.1,0.1l0.1,0.1v0.1l0.1,0.1v0.1l0.1,0.1v0.1l0.1,0.1l0,0v0.1h0.1l0,0
				v0.1l0,0l0,0l0,0l0,0l0,0l0,0h0.1l0,0l0.1,0.1h0.1h0.1l0.1,0.1h0.1l0.1,0.1L255.5,182.5z M258.7,180.5c1.5,0.3,2.4,1.8,2.1,3.3
				c-0.4,1.5-1.9,2.4-3.3,2.1L258.7,180.5z M256.3,180.3l5,2.4l0.1-0.1l-0.1,0.1v0.1v0.1h-0.1v0.1v0.1l-0.1,0.1l0,0v0.1l-0.1,0.1
				l0,0v0.1l-0.1,0.1l0,0v0.1l0,0l-0.1,0.1v0.1l0,0v0.1l0,0h-0.1v0.1l0,0v0.1l0,0l0,0l0,0l0,0l0,0l0,0l0,0l-5.3-1.3v-0.1v-0.1
				l0.1-0.1v-0.1V182l0.1-0.1v-0.1v-0.1l0.1-0.1v-0.1l0.1-0.1v-0.1v-0.1l0.1-0.1v-0.1v-0.1l0.1-0.1l0,0l0.1-0.1V181v-0.1l0.1-0.1
				l0,0v-0.1l0.1-0.1v-0.1l0,0l0.1-0.1l0,0v-0.1v-0.1h0.1V180.3z M256.3,180.4c0.6-1.4,2.1-2.1,3.6-1.5c1.4,0.6,2.1,2.2,1.5,3.6
				L256.3,180.4z M263.6,177.7l-2.4,5l-5-2.4l2.4-4.9L263.6,177.7L263.6,177.7z M258.7,175.4c0.7-1.4,2.3-2,3.7-1.3
				c1.3,0.7,1.9,2.3,1.3,3.7L258.7,175.4z M260.3,172.1l5,2.4v0.1l-0.1,0.1l-0.1,0.1l-0.1,0.1v0.1l-0.1,0.1l-0.1,0.1v0.1l-0.1,0.1
				l-0.1,0.1l-0.1,0.1v0.1l-0.1,0.1l-0.1,0.1v0.1l-0.1,0.1l-0.1,0.1v0.1l-0.1,0.1l-0.1,0.1v0.1l-0.1,0.1l-0.1,0.1v0.1l-0.1,0.1
				l-0.1,0.1v0.1l-0.1,0.1v0.1l-0.1,0.1v0.1l-0.1,0.1v0.1l-5-2.2v-0.1l0.1-0.1l0.1-0.1l0.1-0.1v-0.1l0.1-0.1l0.1-0.1l0.1-0.1v-0.1
				l0.1-0.1l0.1-0.1v-0.1l0.1-0.1l0.1-0.1l0.1-0.1v-0.1l0.1-0.1l0.1-0.1v-0.1l0.1-0.1l0.1-0.1l0.1-0.1v-0.1l0.1-0.1l0.1-0.1v-0.1
				l0.1-0.1l0.1-0.1v-0.1l0.1-0.1L260.3,172.1L260.3,172.1L260.3,172.1z M260.3,172.1c0.7-1.3,2.3-1.9,3.7-1.3
				c1.3,0.7,1.9,2.3,1.3,3.7L260.3,172.1z M267.5,169.7l-2.3,4.8l-5-2.4l2.3-4.8L267.5,169.7L267.5,169.7z M262.6,167.3
				c0.7-1.3,2.3-1.9,3.7-1.3c1.3,0.7,1.9,2.3,1.3,3.6L262.6,167.3z M267.5,164.1l1,5.3h0.1l-0.3,0.1l-0.3,0.1h-0.2l-0.2,0.1h-0.1
				l-0.2,0.1h-0.1H267l-0.1,0.1h-0.1l0,0l0,0l0,0h0.1l0.1-0.1l0.1-0.1l0.1-0.1l0.2-0.1l0.1-0.1l0.1-0.1l0.1-0.1l0.1-0.1l0,0v-0.1
				v0.1l0,0v0.1l-0.1,0.1l-0.1,0.1v0.1l-0.1,0.2l-0.1,0.1l-5-2.2v-0.1l0.1-0.1v-0.1l0.1-0.1l0.1-0.1v-0.1l0.1-0.1l0.1-0.1l0.1-0.1
				l0.1-0.2l0.1-0.1l0.1-0.3l0.2-0.2l0.2-0.2l0.3-0.2l0.2-0.1l0.3-0.1l0.2-0.1l0.2-0.1h0.2l0.1-0.1l0.2-0.1h0.1h0.1l0.1-0.1h0.1
				l0.2-0.1h0.1l0.2-0.1h0.2l0.2-0.1H267.5L267.5,164.1z M267.5,164.1c1.5-0.3,3,0.7,3.3,2.1c0.3,1.5-0.7,2.9-2.1,3.2L267.5,164.1z
				 M278.8,167.5l-10.2,1.9l-1-5.3l10.2-2l3.2,2.1L278.8,167.5z M277.7,162.1c1.5-0.3,3,0.7,3.2,2.2c0.3,1.5-0.7,2.9-2.1,3.2
				L277.7,162.1z M286.3,177.9l-4.9-2.4l-0.1,0.2l-0.1,0.7v0.3l0.1,0.1l-0.1-0.1v-0.1l-0.1-0.2l-0.1-0.3l-0.1-0.3l-0.1-0.4l-0.2-0.4
				l-0.2-0.4l-0.2-0.4l-0.2-0.4l-0.2-0.5l-0.2-0.4l-0.3-0.4l-0.2-0.5l-0.3-0.5l-0.2-0.4l-0.3-0.5l-0.2-0.4l-0.2-0.4l-0.3-0.5
				l-0.2-0.4l-0.2-0.4l-0.1-0.4l-0.2-0.4l-0.1-0.4l-0.2-0.4l-0.1-0.4l-0.1-0.4l-0.1-0.4l5.3-1.3l0,0l0.1,0.1l0.1,0.2l0.1,0.2
				l0.1,0.3l0.1,0.3l0.2,0.4l0.1,0.4l0.2,0.4l0.2,0.4l0.3,0.4l0.2,0.5l0.2,0.4l0.3,0.4l0.2,0.5l0.3,0.5l0.2,0.4l0.3,0.5l0.2,0.4
				l0.2,0.5l0.3,0.4l0.2,0.4l0.2,0.4l0.1,0.4l0.2,0.4l0.1,0.4l0.1,0.4l0.1,0.4l0.1,0.4l0.1,0.5v0.7l-0.1,1L286.3,177.9z
				 M286.4,177.7c-0.5,1.4-2.1,2.1-3.6,1.6c-1.4-0.5-2.1-2.1-1.6-3.6L286.4,177.7z M275.5,187.7l5.9-12.1l4.9,2.4l-5.8,12.1l-5-2.2
				L275.5,187.7z M280.4,190c-0.7,1.4-2.3,2-3.7,1.3c-1.3-0.7-1.9-2.3-1.3-3.7L280.4,190z M276.9,189.7l-1.3,5.3l-2.1-3.3l0.1-0.2
				l0.1-0.1l0.1-0.1v-0.2l0.1-0.1l0.1-0.1l0.1-0.1l0.1-0.1v-0.1l0.1-0.1l0.1-0.1l0.1-0.1l0.1-0.1l0.1-0.1l0.1-0.1l0.1-0.1v-0.1
				l0.1-0.1l0.1-0.1l0.1-0.1l0.1-0.1l0.1-0.1v-0.1l0.1-0.1l0.1-0.1v-0.1l0.1-0.1l0.1-0.1V188V188l0.1-0.1v-0.1l5.1,2.1l-0.1,0.1
				l-0.1,0.1l-0.1,0.1v0.1l-0.1,0.1l-0.1,0.1l-0.1,0.1L280,191l-0.1,0.1l-0.1,0.1v0.1l-0.1,0.1l-0.1,0.1l-0.1,0.1l-0.1,0.1l-0.1,0.1
				v0.1l-0.1,0.1l-0.1,0.1v0.1l-0.1,0.1l-0.1,0.1v0.1l-0.1,0.1v0.1v0.1l-0.1,0.1v0.1l0,0l0,0v0.1l0,0L276.9,189.7z M279,193.1
				c-0.4,1.5-1.9,2.4-3.3,2c-1.5-0.3-2.4-1.8-2.1-3.3L279,193.1z M278.3,190.6v5.5l0,0l-0.9-0.1l-0.2-0.1h-0.1l-0.1-0.1h-0.1
				l-0.1-0.1l0,0h-0.1l-0.1-0.1h-0.1l-0.1-0.1h-0.1l-0.1-0.1l0,0h-0.1l-0.1-0.1h-0.1l-0.1-0.1H276l-0.1-0.1h-0.1l-0.1-0.1h-0.1h-0.1
				v-0.1h-0.1l0,0h-0.1l0,0h0.1l0,0h0.1l1.3-5.3l0.1,0.1h0.1l0.1,0.1h0.1l0.1,0.1l0.1,0.1h0.1l0.1,0.1h0.1l0.1,0.1l0.1,0.1h0.1
				l0.1,0.1h0.1l0.1,0.1l0.1,0.1h0.1l0.1,0.1h0.1l0.1,0.1h0.1l0.1,0.1l0,0h0.1l0.1,0.1l0,0h0.1l0,0l0,0h-0.1l-0.1-0.1L278.3,190.6
				L278.3,190.6z M278.3,190.6c1.6,0,2.7,1.3,2.7,2.7c0,1.6-1.2,2.7-2.7,2.7V190.6z M287.8,184.9l4.4,3.2v0.1l-0.3,0.4l-0.4,0.4
				l-0.3,0.4l-0.4,0.4l-0.3,0.3l-0.4,0.4l-0.4,0.3l-0.4,0.4l-0.4,0.3l-0.4,0.3l-0.4,0.4l-0.4,0.3l-0.4,0.3l-0.4,0.3l-0.5,0.3
				l-0.4,0.3l-0.4,0.2l-0.4,0.3l-0.5,0.2l-0.4,0.2l-0.5,0.2l-0.4,0.2l-0.5,0.2l-0.4,0.1l-0.5,0.2l-0.4,0.1l-0.5,0.1l-0.4,0.1
				l-0.5,0.1l-0.4,0.1l-0.5,0.1h-0.5v-5.5h0.1h0.2l0.2-0.1h0.2l0.3-0.1l0.3-0.1l0.3-0.1l0.3-0.1l0.4-0.1l0.4-0.1l0.3-0.1l0.4-0.1
				l0.4-0.2l0.4-0.2l0.4-0.1l0.4-0.2l0.4-0.2l0.4-0.2l0.4-0.3l0.4-0.2l0.4-0.2l0.3-0.3l0.4-0.2l0.3-0.3l0.3-0.2l0.3-0.2l0.3-0.3
				l0.2-0.2l0.2-0.2l0.2-0.2l0.2-0.2L287.8,184.9L287.8,184.9z M287.9,184.9c0.9-1.2,2.7-1.4,3.8-0.5c1.2,1,1.4,2.7,0.5,3.8
				L287.9,184.9z M294.2,185.4l-1.9,2.7l-4.4-3.2l1.9-2.7l4.5,3L294.2,185.4z M289.7,182.3c0.9-1.3,2.6-1.6,3.8-0.7
				c1.2,0.9,1.5,2.6,0.6,3.8L289.7,182.3z M289.7,163l4.7-2.7l0,0l0.4,0.7l0.4,0.7l0.3,0.7l0.3,0.7l0.3,0.7l0.3,0.8l0.2,0.7l0.2,0.8
				l0.2,0.8l0.1,0.7l0.1,0.8l0.1,0.8l0.1,0.8l0.1,0.8v0.8l0.1,0.9v0.8l-0.1,0.8l-0.1,0.8l-0.1,0.8l-0.1,0.8l-0.1,0.8l-0.1,0.8
				l-0.2,0.7l-0.2,0.8l-0.2,0.8l-0.3,0.7l-0.3,0.8l-0.4,0.7l-0.4,0.7l-0.4,0.7l-0.4,0.7l-4.6-3l0.3-0.5l0.4-0.5l0.2-0.6l0.3-0.5
				l0.2-0.6l0.2-0.6l0.2-0.6l0.1-0.6l0.1-0.6l0.1-0.7l0.1-0.6l0.1-0.6l0.1-0.7l0.1-0.7v-0.6l0.1-0.7l-0.1-0.7v-0.7l-0.1-0.6
				l-0.1-0.7l-0.1-0.7l-0.1-0.6l-0.1-0.7l-0.1-0.6l-0.2-0.7l-0.1-0.6l-0.2-0.6l-0.2-0.6l-0.3-0.6l-0.2-0.6l-0.3-0.5L289.7,163
				L289.7,163z M289.7,163c-0.7-1.3-0.3-3,1-3.8s3-0.3,3.7,1L289.7,163z M289.7,158.3l5.1,2l0,0l-0.1,0.2l-0.1,0.1v0.1l-0.1,0.1
				l-0.1,0.1v0.1l-0.1,0.1v0.1v0.1h-0.1l0,0h0.1v-0.1v-0.1V161l0.1-0.1v-0.1l-0.1-0.2v-0.2l-0.1-0.1V160l-0.1-0.1l-0.1-0.1l0,0l0,0
				l0,0l0.1,0.1l0,0l0.1,0.1l0.1,0.1v0.1l0.1,0.1l-4.7,2.7v-0.1l-0.1-0.1v-0.1l-0.1-0.1l0,0l-0.1-0.1l-0.1-0.1v-0.1l-0.1-0.1
				l-0.1-0.1l-0.1-0.1l-0.1-0.3l-0.1-0.2v-0.3l-0.1-0.3v-0.2l0.1-0.3v-0.2l0.1-0.2v-0.1l0.1-0.1l0.1-0.1v-0.1l0.1-0.1l0.1-0.1V159
				l0.1-0.1v-0.1l0.1-0.1l0.1-0.1l0.1-0.1V158.3L289.7,158.3z M289.7,158.3c0.6-1.4,2.2-2.1,3.6-1.6c1.4,0.6,2.1,2.1,1.5,3.6
				L289.7,158.3z M290.6,155.8l5.1,2v0.1v0.1l-0.1,0.1v0.1v0.1l-0.1,0.1v0.1l-0.1,0.1v0.1v0.1l-0.1,0.1v0.1l-0.1,0.1v0.1v0.1
				l-0.1,0.1v0.1l-0.1,0.1v0.1v0.1l-0.1,0.1v0.1l-0.1,0.1v0.1v0.1l-0.1,0.1v0.1l-0.1,0.1v0.1v0.1l-0.1,0.1v0.1l-0.1,0.1l-5.1-2
				l0.1-0.1v-0.1l0.1-0.1v-0.1l0.1-0.1v-0.1v-0.1l0.1-0.1v-0.1l0.1-0.1v-0.1v-0.1l0.1-0.1v-0.1l0.1-0.1V157l0,0l0.1-0.1v-0.1v-0.1
				l0.1-0.1v-0.1l0.1-0.1v-0.1l0.1-0.1v-0.1v-0.1l0.1-0.1v-0.1l0.1-0.1V155.8L290.6,155.8L290.6,155.8z M290.6,155.8
				c0.6-1.4,2.2-2.1,3.6-1.6c1.4,0.6,2.1,2.2,1.5,3.6L290.6,155.8z M304.4,136l-8.7,21.8l-5.1-2l8.7-21.8v-0.1L304.4,136z
				 M299.3,134c0.5-1.5,2.1-2.1,3.6-1.6c1.4,0.5,2.1,2.1,1.6,3.6L299.3,134z M302.7,129.7v5.5l2.7-2.5v0.2v0.1l-0.1,0.1v0.1
				l-0.1,0.1v0.1v0.1l-0.1,0.1v0.1l-0.1,0.1l-0.1,0.1v0.1l-0.1,0.1v0.1l-0.1,0.1v0.1l-0.1,0.1v0.1l-0.1,0.1v0.1l-0.1,0.1l-0.1,0.1
				v0.1l-0.1,0.1v0.1v0.1l-0.1,0.1v0.1l-0.1,0.1v0.1l0,0v0.1l-5.1-2.1v-0.1l0.1-0.1v-0.1l0.1-0.1v-0.1l0.1-0.1v-0.1v-0.1l0.1-0.1
				v-0.1l0.1-0.1v-0.1l0.1-0.1v-0.1v-0.1l0.1-0.1v-0.1l0.1-0.1v-0.1v-0.1l0.1-0.1l0,0v-0.1v-0.1l0,0v-0.1h0.1l0,0l0,0l0,0l-0.1,0.1
				l0,0L302.7,129.7z M299.9,132.2c0.1-1.5,1.5-2.6,3-2.5c1.6,0.1,2.7,1.5,2.5,3L299.9,132.2z M321.1,135.2h-18.4v-5.5h18.4l2.7,2.7
				L321.1,135.2z M321.1,129.7c1.5,0,2.7,1.3,2.7,2.7c0,1.6-1.3,2.7-2.7,2.7V129.7z M324.1,134.8l-5.4,0.8v-0.1l0,0v-0.1v-0.1
				l-0.1-0.1v-0.1v-0.1v-0.1V135v-0.1l-0.1-0.1v-0.1v-0.1v-0.1v-0.1l-0.1-0.1v-0.1v-0.1V134l-0.1-0.1v-0.1v-0.1v-0.1v-0.1v-0.1
				l-0.1-0.1v-0.1v-0.1V133v-0.1v-0.1v-0.1v-0.1l5.5-0.1l0,0l0,0v0.1v0.1l0,0v0.1v0.1l0,0v0.1v0.1l0.1,0.1v0.1v0.1v0.1v0.1v0.1v0.1
				l0.1,0.1v0.1v0.1v0.1v0.1l0.1,0.1v0.1v0.1v0.1v0.1l0.1,0.1v0.1v0.1V134.8L324.1,134.8L324.1,134.8z M324.1,134.8
				c0.2,1.6-0.8,2.9-2.3,3.1c-1.6,0.2-2.9-0.8-3.1-2.4L324.1,134.8z M320,143.9l-1.3-8.4l5.4-0.8l1.3,8.4l-2.7,3.2L320,143.9z
				 M325.4,143.1c0.2,1.6-0.8,2.9-2.3,3.1s-2.9-0.8-3.1-2.3L325.4,143.1z M342.6,146.3h-20v-5.5h20l2.7,2.3L342.6,146.3z
				 M342.6,140.8c1.6,0,2.7,1.2,2.7,2.7c0,1.5-1.2,2.7-2.7,2.7V140.8z M335.6,82.8l9.8,60.3L340,144l-9.8-60.3L335.6,82.8
				L335.6,82.8z M330.2,83.7c-0.3-1.5,0.7-2.9,2.2-3.2c1.5-0.2,2.9,0.8,3.2,2.3L330.2,83.7z M330.6,81.9l-0.1-5.5l0,0h0.1h0.1
				l0.1-0.1h0.1h0.1h0.1h0.1h0.2h0.3h0.3l0.4,0.1l0.4,0.1l0.4,0.3l0.4,0.4l0.4,0.4l0.2,0.4l0.1,0.4l0.1,0.3L335,79l0.1,0.2l0.1,0.2
				v0.2l0.1,0.3v0.2l0.1,0.2v0.3l0.1,0.3v0.3l0.1,0.4l0.1,0.4l0.1,0.4l0.1,0.4l-5.4,0.9l-0.1-0.4l-0.1-0.4l-0.1-0.4l-0.1-0.4
				l-0.1-0.3v-0.3l-0.1-0.3V81v-0.2l-0.1-0.1v-0.1v-0.1l0,0l0,0v0.1l0.1,0.1l0.1,0.2l0.2,0.3l0.3,0.2l0.4,0.2l0.4,0.1l0.2,0.1h0.2
				h0.1l0,0h-0.1h-0.1h-0.1h-0.1l-0.2,0.1h-0.2H330.6L330.6,81.9z M330.6,81.9c-1.5,0-2.7-1.2-2.8-2.7c0-1.5,1.3-2.7,2.7-2.7
				L330.6,81.9z M307.4,80.2l-5.1-2.1l2.5-1.7h0.8h0.8h0.8h0.8h0.8h0.7h0.8h0.8h0.8h0.8h0.8h0.8h0.8h0.7h0.8h0.8h0.8h0.8h0.8h0.7
				h0.8h0.8h0.8h0.8h0.8h0.7h0.8h0.8h0.8h0.7h0.8h0.8l0.1,5.5h-0.8H329h-0.8h-0.7h-0.8h-0.8H325h-0.8h-0.8h-0.8h-0.8h-0.8h-0.8h-0.7
				h-0.8h-0.8h-0.8h-0.8h-0.8h-0.8h-0.8h-0.7h-0.8h-0.8h-0.8h-0.8h-0.8h-0.7h-0.8h-0.8h-0.8h-0.8L307.4,80.2z M304.8,81.9
				c-1.5,0-2.7-1.3-2.7-2.7c0-1.6,1.3-2.7,2.7-2.7V81.9z M289.4,109.7l12.9-31.5l5.1,2.1l-12.9,31.5v0.1L289.4,109.7z M294.5,111.7
				c-0.6,1.4-2.1,2.1-3.6,1.6c-1.4-0.6-2.1-2.2-1.6-3.6L294.5,111.7z M292.7,116.4l-5-2.2l0,0l0.1-0.1V114l0.1-0.1l0.1-0.1l0.1-0.1
				l0.1-0.1v-0.1l0.1-0.1l0.1-0.1v-0.1l0.1-0.1l0.1-0.1l0.1-0.1v-0.1l0.1-0.1l0.1-0.1l0.1-0.1v-0.1l0.1-0.1l0.1-0.1l0.1-0.1v-0.1
				l0.1-0.1l0.1-0.1l0.1-0.1l0.1-0.1v-0.1l0.1-0.1l0.1-0.1l0.1-0.1l0.1-0.1l0.1-0.2l5,2.2l-0.1,0.1l-0.1,0.1l-0.1,0.1v0.1l-0.1,0.1
				l-0.1,0.1v0.1l-0.1,0.1L294,113l-0.1,0.1v0.1l-0.1,0.1l-0.1,0.1l-0.1,0.1v0.1l-0.1,0.1l-0.1,0.1v0.1l-0.1,0.1l-0.1,0.1l-0.1,0.1
				l-0.1,0.1v0.1l-0.1,0.1l-0.1,0.1l-0.1,0.2l-0.1,0.1l-0.1,0.1l-0.1,0.1v0.1l-0.1,0.1L292.7,116.4L292.7,116.4z M292.7,116.4
				c-0.7,1.4-2.3,2-3.6,1.4c-1.4-0.6-2-2.2-1.4-3.6L292.7,116.4z M290.9,120.8l-5.1-2.1l0,0l0.1-0.1l0.1-0.1l0.1-0.1v-0.1l0.1-0.1
				l0.1-0.1l0.1-0.1v-0.1l0.1-0.1l0.1-0.1v-0.1l0.1-0.1l0.1-0.1l0.1-0.1v-0.1l0.1-0.1l0.1-0.1v-0.1l0.1-0.1l0.1-0.1l0.1-0.1v-0.1
				l0.1-0.1l0.1-0.1l0.1-0.1l0.1-0.1l0.1-0.1v-0.1l0.1-0.1l0.1-0.1l0.1-0.1l0.1-0.1l5,2.2l-0.1,0.1l-0.1,0.1l-0.1,0.1v0.1l-0.1,0.1
				l-0.1,0.1l-0.1,0.1v0.1l-0.1,0.1l-0.1,0.1v0.1L292,118l-0.1,0.1l-0.1,0.1v0.1l-0.1,0.1l-0.1,0.1v0.1l-0.1,0.1l-0.1,0.1l-0.1,0.1
				v0.1l-0.1,0.1l-0.1,0.1l-0.1,0.1v0.1l-0.1,0.1l-0.1,0.1l-0.1,0.1l-0.1,0.1L290.9,120.8L290.9,120.8L290.9,120.8z M290.9,120.8
				c-0.6,1.3-2.2,2-3.6,1.4c-1.4-0.6-2.1-2.1-1.5-3.6L290.9,120.8z M273.8,148.1l12-29.4l5.1,2.1l-12,29.4L273.8,148.1L273.8,148.1z
				 M278.9,150.1c-0.6,1.4-2.2,2.1-3.6,1.6c-1.4-0.6-2.1-2.2-1.5-3.6L278.9,150.1z M275.5,154.1v-5.5l-2.4,1.5v-0.1l0,0l0.1-0.1
				v-0.1l0,0v-0.1l0.1-0.1l0,0v-0.1l0.1-0.1l0,0v-0.1l0.1-0.1v-0.1v-0.1l0.1-0.1l0,0v-0.1l0.1-0.1V149V149l0.1-0.1v-0.1l0.1-0.1
				v-0.1v-0.1l0.1-0.1v-0.1l0.1-0.1v-0.1v-0.1l0.1-0.1l5.1,2l-0.1,0.1v0.1v0.1l-0.1,0.1l0,0v0.1l-0.1,0.1v0.1l-0.1,0.1v0.1v0.1
				l-0.1,0.1v0.1l-0.1,0.1v0.1v0.1l-0.1,0.1v0.1l-0.1,0.1v0.1l-0.1,0.1v0.1l-0.1,0.1v0.1l-0.1,0.1v0.1l-0.1,0.1v0.1l-0.1,0.1v0.1
				l-0.1,0.1l-0.1,0.1L275.5,154.1z M277.8,152.7c-0.7,1.3-2.4,1.9-3.7,1.2c-1.3-0.7-1.9-2.4-1.1-3.7L277.8,152.7z"/>
			<path class="st1" d="M316.6,94.4l2.9,23.7h-11.4l7.4-20.7c0.2-0.6,0.3-0.9,0.5-1.5c0.1-0.4,0.1-0.4,0.3-0.8
				c0-0.1,0.1-0.1,0.1-0.4C316.6,94.3,316.5,94.5,316.6,94.4z M275.5,151.4c-3.8,0-6.2,0.6-8.8,1.7c-3.4,1.5-6.7,4.1-8.8,7
				c-2.3,3-4.2,7.6-4.2,11.7c0,2.9,0.1,4.9,1.3,7.7c0.7,1.8,0.8,3.1,3.3,3.7c0.1-0.5,0.4-1.1,0.7-1.7l2.4-4.9c0.4-1.1,1-2.1,1.6-3.3
				l2.4-4.8c0.7-1.6,0.1-1.2,3-1.8l10.2-1.9c0.5,2.1,6,10.8,5.6,11.9l-5.8,12.1c-0.4,1.1-1.4,2.6-1.6,3.6c0.4,0.1,1.9,0.9,1.9,0.9
				c3.5,0,9.5-3.8,11.8-6.7l1.9-2.7c4.2-6.5,3.9-15.6,0.1-22.2c-0.5-1-0.6-0.6,0.1-2.3c0.4-0.9,0.6-1.6,1-2.4l8.6-21.9
				c0.3-0.6,0.9-1.9,0.9-2.5h18.4c0,0.8,0.2,1.9,0.4,2.7l1.2,8.4h20l-9.8-60.3c-0.8-4.9-0.2-4.1-2.3-4.1c-8.6,0.1-17.2,0-25.8,0
				L292,110.7c-0.7,1.6-1.2,3-1.9,4.6s-1.2,2.9-1.9,4.4l-12,29.4C276,149.9,275.8,150.7,275.5,151.4z"/>
		</g>
		<g>
			<path class="st0" d="M285.6,57.9l-10-4.1l2.1-5.1l10,4.1l1.6,3.2L285.6,57.9z M287.7,52.9c1.4,0.6,2.1,2.1,1.6,3.6
				c-0.6,1.4-2.2,2.1-3.6,1.5L287.7,52.9z M288.5,58.5l-5.1-2v0.1v-0.1v-0.1l0.1-0.1v-0.1l0.1-0.1v-0.1v-0.1l0.1-0.1v-0.1v-0.1
				l0.1-0.1l0,0v-0.1l0.1-0.1v-0.1v-0.1l0,0l0.1-0.1v-0.1l0,0v-0.1l0.1-0.1l0,0v-0.1l0,0v-0.1L284,55l0,0v-0.1l0,0v-0.1l0,0l5.3,1.3
				v0.1v0.1l-0.1,0.1v0.1v0.1l-0.1,0.1v0.1v0.1l-0.1,0.1V57v0.1l-0.1,0.1v0.1l-0.1,0.1v0.1v0.1l-0.1,0.1v0.1l-0.1,0.1l0,0v0.1
				l-0.1,0.1v0.1V58l-0.1,0.1v0.1v0.1h-0.1v0.1v0.1L288.5,58.5L288.5,58.5L288.5,58.5z M288.5,58.5c-0.5,1.4-2.1,2.1-3.5,1.6
				c-1.5-0.6-2.1-2.1-1.6-3.6L288.5,58.5z M274.2,80.4l9.2-23.8l5.1,2l-9.2,23.8v0.1L274.2,80.4z M279.3,82.4
				c-0.5,1.4-2.1,2.1-3.6,1.6c-1.4-0.5-2.1-2.1-1.6-3.6L279.3,82.4z M269.3,108.3l-5.2-1.9l0.1-0.1l0.3-0.7l0.3-0.8l0.3-0.8l0.4-0.7
				l0.3-0.8l0.3-0.8l0.3-0.8l0.3-0.8l0.4-0.8l0.3-0.8l0.3-0.8l0.3-0.8l0.3-0.8l0.4-0.9l0.3-0.8l0.3-0.8l0.3-0.8l0.3-0.8l0.4-0.8
				l0.3-0.8l0.3-0.9l0.3-0.8l0.4-0.8l0.3-0.8L272,86l0.3-0.8l0.4-0.8l0.3-0.8l0.3-0.8l0.3-0.8l0.4-0.7l0.3-0.8l5.1,2.1l-0.3,0.7
				l-0.4,0.8l-0.3,0.7l-0.3,0.8l-0.3,0.8l-0.4,0.8l-0.3,0.8l-0.3,0.8l-0.3,0.8l-0.3,0.8l-0.4,0.8l-0.3,0.8l-0.3,0.8l-0.3,0.8
				l-0.3,0.8l-0.4,0.8l-0.3,0.8l-0.3,0.9l-0.3,0.8l-0.3,0.8l-0.4,0.8l-0.3,0.8l-0.3,0.8l-0.3,0.8l-0.4,0.8l-0.3,0.9l-0.3,0.8
				l-0.3,0.8l-0.4,0.7l-0.3,0.8l-0.3,0.8L269.3,108.3L269.3,108.3z M269.2,108.4c-0.5,1.4-2.1,2.1-3.6,1.6c-1.4-0.6-2.1-2.2-1.5-3.6
				L269.2,108.4z M257.5,123.9l6.6-17.5l5.2,1.9l-6.7,17.5l-5.3-0.2L257.5,123.9z M262.7,125.8c-0.6,1.4-2.1,2.1-3.6,1.6
				c-1.4-0.5-2.1-2.1-1.6-3.5L262.7,125.8z M262.4,122.8l0.4,1.3l-5.3,1.5l-0.3-1.3l-0.1-0.4L262.4,122.8z M257.1,124.3
				c-0.4-1.5,0.4-3,1.9-3.4c1.4-0.4,3,0.4,3.3,1.9L257.1,124.3z M254.2,102.4l5.5-0.7v-0.1l0.1,0.6l0.1,0.7l0.1,0.6l0.1,0.7l0.1,0.6
				l0.1,0.7l0.1,0.7l0.1,0.7l0.1,0.7l0.1,0.7l0.1,0.7l0.1,0.7l0.1,0.7l0.1,0.7l0.1,0.7l0.1,0.7l0.1,0.7l0.1,0.7l0.1,0.7l0.1,0.7
				l0.1,0.7l0.1,0.7l0.1,0.7l0.1,0.7l0.1,0.7l0.1,0.7l0.1,0.7l0.1,0.7l0.1,0.7l0.1,0.6v0.7l0.1,0.6l-5.4,0.6l-0.1-0.6l-0.1-0.7
				l-0.1-0.6l-0.1-0.7l-0.1-0.7l-0.1-0.6l-0.1-0.7l-0.1-0.7l-0.1-0.7l-0.1-0.7l-0.1-0.7l-0.1-0.7l-0.1-0.7l-0.1-0.7l-0.1-0.7
				l-0.1-0.7l-0.1-0.7l-0.1-0.7l-0.1-0.7l-0.1-0.7l-0.1-0.7l-0.1-0.7l-0.1-0.7l-0.1-0.7l-0.1-0.7l-0.1-0.7l-0.1-0.7l-0.1-0.6
				l-0.1-0.7l-0.1-0.6l-0.1-0.7L254.2,102.4L254.2,102.4z M254.2,102.4c-0.1-1.5,0.9-2.9,2.4-3c1.5-0.2,2.9,0.8,3.1,2.3L254.2,102.4
				z M256.7,78.8l3,22.9l-5.5,0.7l-3-22.9l2.7-3L256.7,78.8z M251.3,79.5c-0.1-1.5,0.9-2.8,2.4-3c1.6-0.2,2.9,0.9,3.1,2.4
				L251.3,79.5z M234.2,76.4H254v5.5h-19.8l-2.7-2.7L234.2,76.4z M234.2,81.9c-1.6,0-2.7-1.3-2.7-2.7c0-1.6,1.2-2.7,2.7-2.7V81.9z
				 M246.6,141l-5.4,0.8l0,0l-0.1-1l-0.1-1.1l-0.2-1.3l-0.3-1.6l-0.2-1.7l-0.3-1.9l-0.4-2.1l-0.4-2.2l-0.4-2.3l-0.4-2.4l-0.4-2.5
				l-0.4-2.6l-0.4-2.7l-0.4-2.7l-0.4-2.7l-0.4-2.7l-0.4-2.7l-0.4-2.6l-0.4-2.6l-0.4-2.5l-0.4-2.4l-0.4-2.4l-0.4-2.1l-0.3-2.1
				l-0.3-1.9l-0.2-1.7l-0.3-1.6l-0.1-1.3l-0.1-1.1l-0.1-0.8l-0.1-0.7v-0.6h5.5l0,0l0.1,0.5l0.1,0.8l0.1,1.1l0.2,1.3l0.2,1.6l0.2,1.7
				l0.3,1.9l0.4,2l0.3,2.2l0.4,2.3l0.4,2.4l0.4,2.4l0.4,2.6l0.4,2.7l0.4,2.7l0.4,2.7l0.4,2.7l0.4,2.7l0.4,2.7l0.4,2.6l0.4,2.5
				l0.4,2.4l0.4,2.4l0.3,2.2l0.4,2.1l0.3,1.9l0.3,1.8l0.2,1.6l0.2,1.4l0.1,1.1L246.6,141L246.6,141z M246.6,141
				c0.2,1.5-0.8,2.9-2.3,3.1c-1.5,0.2-2.9-0.8-3.1-2.3L246.6,141z M244.2,140.8v5.5l-2.7-2.7v-0.1l0,0l0,0l-0.1-0.1l0,0v-0.1l0,0
				v-0.1v-0.1l0,0v-0.1V143l0,0V143v-0.1l-0.1-0.1l0,0v-0.1v-0.1v-0.1v-0.1v-0.1h-0.1v-0.1v-0.1v-0.1v-0.1l-0.1-0.1V142v-0.1v-0.1
				v-0.1l5.4-0.8l0,0v0.1l0,0l0.1,0.1v0.1l0,0v0.1v0.1v0.1v0.1l0.1,0.1v0.1v0.1v0.1v0.1l0.1,0.1v0.1v0.1v0.1v0.1v0.1l0.1,0.1v0.1
				v0.1v0.1v0.1v0.1v0.1l0.1,0.1v0.1v0.1v0.1L244.2,140.8z M247,143.6c0,1.5-1.3,2.7-2.7,2.7c-1.6,0-2.7-1.3-2.7-2.7H247z
				 M270.8,146.3h-26.6v-5.5h26.6l0,0V146.3z M270.8,140.8c1.5,0,2.7,1.2,2.7,2.7c0,1.5-1.3,2.7-2.7,2.7V140.8z M269.5,140.4l5.1,2
				l0,0l-0.1,0.1v0.1l-0.1,0.1v0.1v0.1l-0.1,0.1v0.1l-0.1,0.1v0.1l-0.1,0.1v0.1l-0.1,0.1v0.1l-0.1,0.1v0.1L274,144l-0.1,0.1
				l-0.1,0.1l-0.1,0.1l-0.1,0.1l-0.1,0.1l-0.1,0.1l-0.1,0.2l-0.1,0.1l-0.2,0.2l-0.2,0.2l-0.3,0.1l-0.3,0.1l-0.4,0.1l-0.3,0.1
				l-0.4,0.1h-0.3v-5.5h-0.2h-0.2l-0.2,0.1l-0.2,0.1l-0.2,0.1l-0.2,0.1l-0.1,0.1l-0.1,0.1l-0.1,0.1l-0.1,0.1v0.1l-0.1,0.1v0.1l0,0
				l0,0l0,0v-0.1l0,0v-0.1l0.1-0.1l0,0v-0.1l0.1-0.1v-0.1l0.1-0.1v-0.1l0.1-0.1v-0.1l0.1-0.1v-0.1l0.1-0.1L269.5,140.4L269.5,140.4z
				 M269.5,140.4c0.6-1.4,2.1-2.1,3.6-1.6c1.4,0.6,2.1,2.1,1.6,3.6L269.5,140.4z M298,84l-23.5,58.4l-5.1-2l23.5-58.5L298,84L298,84
				z M292.9,81.9c0.5-1.4,2.1-2.1,3.6-1.5c1.4,0.5,2.1,2.1,1.6,3.6L292.9,81.9z M297,71.8l5.1,2l0,0l-0.1,0.3l-0.1,0.4l-0.1,0.3
				l-0.1,0.3l-0.1,0.4l-0.1,0.3l-0.1,0.3l-0.1,0.4l-0.1,0.3l-0.1,0.3l-0.1,0.3l-0.1,0.4l-0.1,0.3l-0.1,0.3l-0.1,0.4l-0.1,0.3
				l-0.1,0.3l-0.1,0.3l-0.1,0.4l-0.1,0.3l-0.1,0.3l-0.1,0.4l-0.1,0.3l-0.1,0.3l-0.1,0.3l-0.1,0.4l-0.1,0.3l-0.1,0.3l-0.1,0.4
				l-0.1,0.3l-0.1,0.3L298,84l-5.1-2.1l0.1-0.3l0.1-0.3l0.1-0.4l0.1-0.3l0.1-0.4l0.1-0.3l0.1-0.3l0.1-0.3L294,79l0.1-0.3l0.1-0.3
				l0.1-0.4l0.1-0.3l0.1-0.3l0.1-0.3l0.1-0.4l0.1-0.3l0.1-0.3l0.1-0.3l0.1-0.4l0.1-0.3l0.1-0.3l0.1-0.4l0.1-0.3l0.1-0.3l0.1-0.3
				l0.1-0.4l0.1-0.3l0.1-0.3l0.1-0.4l0.1-0.3L297,71.8L297,71.8z M297,71.8c0.5-1.4,2.1-2.1,3.6-1.6c1.4,0.5,2.1,2.1,1.6,3.6
				L297,71.8z M299,66.7l5.1,2l0,0l-0.1,0.1V69l-0.1,0.1l-0.1,0.1l-0.1,0.1l-0.1,0.2l-0.1,0.1l-0.1,0.1l-0.1,0.1l-0.1,0.1v0.1
				l-0.1,0.2l-0.1,0.1l-0.1,0.1l-0.1,0.1l-0.1,0.1l-0.1,0.1v0.1l-0.1,0.2l-0.1,0.1l-0.1,0.1l-0.1,0.1l-0.1,0.1l-0.1,0.1v0.1
				l-0.1,0.1l-0.1,0.2l-0.1,0.1l-0.1,0.1l-0.1,0.1v0.1l-0.1,0.1l-5.1-2l0.1-0.2l0.1-0.1v-0.1l0.1-0.1l0.1-0.1l0.1-0.1l0.1-0.1
				l0.1-0.1l0.1-0.1v-0.2l0.1-0.1l0.1-0.1l0.1-0.1l0.1-0.1l0.1-0.1v-0.1L298,69l0.1-0.1l0.1-0.1l0.1-0.1l0.1-0.1l0.1-0.1l0.1-0.2
				v-0.1l0.1-0.1l0.1-0.1l0.1-0.1l0.1-0.1l0.1-0.2l0.1-0.1l0.1-0.1V66.7L299,66.7z M299,66.7c0.6-1.4,2.2-2.1,3.6-1.6
				c1.4,0.6,2.1,2.1,1.5,3.6L299,66.7z M300,64.1l5.1,2.1l0,0v0.1l-0.1,0.1v0.1l-0.1,0.1v0.1l-0.1,0.1v0.1l-0.1,0.1v0.1V67l-0.1,0.1
				v0.1l-0.1,0.1v0.1v0.1l-0.1,0.1v0.1l-0.1,0.1v0.1v0.1l-0.1,0.1v0.1l-0.1,0.1V68l-0.1,0.1v0.1v0.1l-0.1,0.1v0.1l-0.1,0.1v0.1
				l-0.1,0.1l-5.1-2l0.1-0.1v-0.1l0.1-0.1v-0.1l0.1-0.1v-0.1l0.1-0.1V66v-0.1l0.1-0.1v-0.1l0.1-0.1l0,0l0.1-0.1v-0.1v-0.1l0.1-0.1
				v-0.1l0.1-0.1V65V65l0.1-0.1v-0.1l0.1-0.1v-0.1l0.1-0.1v-0.1v-0.1l0.1-0.1v-0.1L300,64.1L300,64.1L300,64.1z M300,64.1
				c0.6-1.4,2.1-2.1,3.6-1.5c1.4,0.5,2.1,2.1,1.6,3.6L300,64.1z M304.2,59.9l-1.3,5.4l3.1-1.5l0,0l-0.1,0.1v0.1V64h-0.1v0.1
				l-0.1,0.1v0.1v0.1l-0.1,0.1v0.1v0.1l-0.1,0.1v0.1l-0.1,0.1v0.1v0.1l-0.1,0.1V65l-0.1,0.1v0.1v0.1l-0.1,0.1v0.1l-0.1,0.1v0.1
				l-0.1,0.1v0.1l-0.1,0.1v0.1v0.1l-0.1,0.1l-5.1-2.1l0.1-0.1v-0.1v-0.1l0.1-0.1v-0.1l0.1-0.1v-0.1v-0.1l0.1-0.1v-0.1l0.1-0.1v-0.1
				v-0.1l0.1-0.1v-0.1l0.1-0.1v-0.1l0.1-0.1v-0.1l0.1-0.1v-0.1l0.1-0.1v-0.1l0.1-0.1V62l0.1-0.1v-0.1l0.1-0.1v-0.1l0.1-0.1v-0.1
				l0.1-0.1L304.2,59.9z M301.1,61.4c0.7-1.4,2.3-2,3.6-1.3c1.4,0.7,2,2.3,1.3,3.7L301.1,61.4z M311.4,66.9l5.5-0.1l-3.4,2.7
				l-0.3-0.1l-0.3-0.1l-0.3-0.1l-0.3-0.1L312,69l-0.4-0.1l-0.3-0.1l-0.4-0.1l-0.4-0.1l-0.4-0.1l-0.4-0.2l-0.4-0.1l-0.4-0.1l-0.4-0.2
				l-0.4-0.1l-0.4-0.2l-0.4-0.1l-0.4-0.2l-0.4-0.1l-0.4-0.2l-0.4-0.1l-0.4-0.1l-0.4-0.1l-0.4-0.1l-0.3-0.1l-0.3-0.1l-0.3-0.1
				l-0.2-0.1l-0.2-0.1l-0.1-0.1h-0.1h0.1l1.3-5.4l0.3,0.1l0.2,0.1l0.3,0.1l0.3,0.1l0.2,0.1l0.4,0.1l0.3,0.1l0.4,0.1l0.4,0.1l0.4,0.2
				l0.4,0.1l0.4,0.1l0.4,0.2l0.4,0.1l0.4,0.2l0.4,0.1l0.4,0.2l0.4,0.1l0.4,0.1l0.4,0.2l0.4,0.1l0.4,0.1l0.4,0.2l0.4,0.1l0.3,0.1
				l0.4,0.1l0.3,0.1l0.2,0.1l0.2,0.1l0.1,0.1h0.1l0,0L311.4,66.9z M314.7,64.2c1.5,0.4,2.4,1.9,2.1,3.3c-0.4,1.5-1.9,2.4-3.3,2.1
				L314.7,64.2z M310.5,63l5.4-1.2l0,0v0.1L316,62v0.1v0.1l0.1,0.1v0.1l0.1,0.1v0.1v0.1l0.1,0.1v0.1l0.1,0.1v0.1l0.1,0.1v0.2
				l0.1,0.1v0.1l0.1,0.1v0.2l0.1,0.1v0.1l0.1,0.2v0.1l0.1,0.1v0.2v0.1l0.1,0.1v0.2v0.1v0.2l0.1,0.1v0.2l-5.5,0.1l0,0v-0.1l-0.1-0.1
				v-0.1v-0.1v-0.1v-0.1v-0.1l-0.1-0.1V66v-0.1l-0.1-0.1v-0.1l-0.1-0.1v-0.1v-0.1L311,65v-0.1l-0.1-0.1v-0.1l-0.1-0.1v-0.1l-0.1-0.1
				V64l-0.1-0.1v-0.1v-0.1l-0.1-0.1v-0.1l-0.1-0.1L310.5,63L310.5,63L310.5,63z M310.5,63c-0.3-1.6,0.7-3,2.1-3.3
				c1.5-0.3,3,0.6,3.3,2.1L310.5,63z M309.6,58.5l5.4-1.1v-0.1v0.1l0.1,0.1v0.1v0.1l0.1,0.1v0.1l0.1,0.1v0.1l0.1,0.1v0.1v0.1
				l0.1,0.1v0.1v0.1l0.1,0.1v0.1l0.1,0.1v0.1V60l0.1,0.1v0.1v0.1l0.1,0.1v0.1l0.1,0.1v0.1v0.1l0.1,0.1v0.1v0.1l0.1,0.1v0.1l-5.4,1.2
				v-0.1v-0.1l-0.1-0.1v-0.1v-0.1l-0.1-0.1v-0.1l-0.1-0.1v-0.1v-0.1l-0.1-0.1v-0.1v-0.1l-0.1-0.1v-0.1l-0.1-0.1v-0.1v-0.1l-0.1-0.1
				v-0.1V60l-0.1-0.1v-0.1v-0.1l-0.1-0.1v-0.1l-0.1-0.1v-0.1V59l-0.1-0.1v-0.1l-0.1-0.1V58.5z M309.6,58.6c-0.3-1.5,0.6-3,2.1-3.3
				c1.5-0.4,3,0.5,3.3,2L309.6,58.6z M311.3,39.4l3.8,18l-5.4,1.1l-3.7-18l0,0L311.3,39.4z M305.9,40.5c-0.3-1.5,0.7-3,2.1-3.3
				c1.5-0.3,2.9,0.7,3.2,2.1L305.9,40.5z M307.5,33.4l-1.4-5.3l3.5,2.7v-0.1v0.1v0.1V31l0.1,0.2v0.2l0.1,0.2l0.1,0.3v0.3l0.1,0.3
				l0.1,0.4l0.1,0.4l0.1,0.3l0.1,0.4l0.1,0.4l0.1,0.4l0.1,0.4l0.1,0.4l0.1,0.4l0.1,0.4l0.1,0.4l0.1,0.4l0.1,0.3l0.1,0.4l0.1,0.3
				l0.1,0.3l0.1,0.2v0.2l0.1,0.2l0.1,0.2v0.1v0.1l-5.3,1.1l-0.1-0.1v-0.1V40l-0.1-0.2l-0.1-0.2v-0.3l-0.1-0.3l-0.1-0.3l-0.1-0.3
				l-0.1-0.4l-0.1-0.3l-0.1-0.4l-0.1-0.4l-0.1-0.4l-0.1-0.4l-0.1-0.4l-0.1-0.4l-0.1-0.4l-0.1-0.4l-0.1-0.4l-0.1-0.4l-0.1-0.3v-0.4
				l-0.1-0.3l-0.1-0.3l-0.1-0.3v-0.3l-0.1-0.3v-0.2l-0.1-0.2v-0.2v-0.3L307.5,33.4z M304.1,30.9c0-1.6,1.2-2.7,2.7-2.7
				c1.5,0,2.7,1.2,2.7,2.7H304.1z M306.5,34.3l-3-4.6l0,0l0,0h0.1v-0.1h0.1l0.1-0.1l0,0l0.1-0.1h0.1l0.1-0.1v-0.1h0.1l0.1-0.1
				l0.1-0.1h0.1l0.1-0.1l0.1-0.1h0.1l0.1-0.1l0.1-0.1l0.1-0.1h0.1l0.1-0.1l0.1-0.1l0.1-0.1h0.1l0.1-0.1l0.1-0.1l0.1-0.1h0.1l0.1-0.1
				l0.1-0.1h0.1l1.4,5.3h0.1l0,0h0.1l0,0l0,0l0,0l0,0l0,0l0,0h-0.1v0.1h-0.1l0,0l0,0l-0.1,0.1h-0.1l0,0l-0.1,0.1l0,0l-0.1,0.1h-0.1
				l-0.1,0.1l0,0l-0.1,0.1l-0.1,0.1h-0.1l-0.1,0.1l0,0l-0.1,0.1l-0.1,0.1L306.5,34.3L306.5,34.3L306.5,34.3z M306.5,34.3
				c-1.3,0.8-3,0.5-3.8-0.7c-0.8-1.3-0.4-3,0.8-3.8L306.5,34.3z M304.5,35.5l-3.1-4.5l0,0l0.1-0.1h0.1l0.1-0.1l0.1-0.1h0.1l0.1-0.1
				l0,0l0.1-0.1l0.1-0.1h0.1l0.1-0.1h0.1v-0.1h0.1l0.1-0.1h0.1l0.1-0.1l0,0l0.1-0.1h0.1l0.1-0.1h0.1V30h0.1L303,30l0.1-0.1h0.1v-0.1
				h0.1l0.1-0.1h0.1l0.1-0.1l3,4.6h-0.1l-0.1,0.1l-0.1,0.1h-0.1l-0.1,0.1H306v0.1h-0.1l-0.1,0.1l-0.1,0.1h-0.1v0.1h-0.1l-0.1,0.1
				h-0.1l-0.1,0.1l0,0l-0.1,0.1h-0.1v0.1h-0.1l-0.1,0.1h-0.1v0.1H305l-0.1,0.1h-0.1l-0.1,0.1l0,0l-0.1,0.1L304.5,35.5L304.5,35.5
				L304.5,35.5z M304.5,35.5c-1.3,0.8-3,0.5-3.8-0.7c-0.9-1.2-0.6-2.9,0.7-3.8L304.5,35.5z M302.7,36.9l-3.1-4.5v-0.1h0.1l0.1-0.1
				l0,0l0.1-0.1h0.1l0.1-0.1l0,0L300,32h0.1v-0.1h0.1l0.1-0.1h0.1v-0.1h0.1l0.1-0.1h0.1v-0.1h0.1l0.1-0.1h0.1v-0.1l0.1-0.1h0.1
				l0.1-0.1h0.1l0.1-0.1v-0.1h0.1l0.1-0.1h0.1l0.1-0.1l3.1,4.5h-0.1v0.1l-0.1,0.1h-0.1l-0.1,0.1l0,0l-0.1,0.1h-0.1l-0.1,0.1h-0.1V36
				h-0.1l-0.1,0.1l-0.1,0.1l0,0l-0.1,0.1h-0.1l-0.1,0.1h-0.1v0.1h-0.1l-0.1,0.1l-0.1,0.1h-0.1l-0.1,0.1l0,0l-0.1,0.1l-0.1,0.1h-0.1
				L302.7,36.9L302.7,36.9L302.7,36.9L302.7,36.9z M302.6,36.9c-1.3,0.8-3,0.5-3.8-0.7c-0.9-1.3-0.5-3,0.7-3.8L302.6,36.9z
				 M282.6,43.9l17-11.5l3.1,4.5l-17,11.5l0,0L282.6,43.9z M285.7,48.4c-1.3,0.9-3,0.5-3.8-0.7c-0.9-1.3-0.6-3,0.7-3.8L285.7,48.4z
				 M282,50.9l-3.3-4.5h0.1l0.1-0.1l0.1-0.1l0.1-0.1l0.1-0.1l0.1-0.1l0.1-0.1l0.1-0.1l0.1-0.1l0.1-0.1l0.1-0.1l0.1-0.1l0.1-0.1
				l0.1-0.1l0.1-0.1l0.1-0.1l0.1-0.1l0.1-0.1l0.1-0.1l0.1-0.1l0.1-0.1l0.1-0.1l0.1-0.1l0.1-0.1l0.1-0.1l0.1-0.1l0.1-0.1l0.1-0.1
				l0.1-0.1l0.1-0.1l0.1-0.1l0.1-0.1l0.1-0.1l3,4.5l-0.1,0.1l-0.1,0.1l-0.1,0.1l-0.1,0.1l-0.1,0.1l-0.1,0.1l-0.1,0.1l-0.1,0.1
				l-0.1,0.1l-0.1,0.1l-0.1,0.1l-0.1,0.1l-0.1,0.1l-0.1,0.1l-0.1,0.1l-0.1,0.1l-0.1,0.1l-0.1,0.1l-0.1,0.1l-0.1,0.1l-0.1,0.1
				l-0.1,0.1l-0.1,0.1l-0.1,0.1l-0.1,0.1l-0.1,0.1l-0.1,0.1l-0.1,0.1l-0.1,0.1l-0.1,0.1L282,50.9L282,50.9L282,50.9z M282,50.9
				c-1.3,0.9-3,0.5-3.8-0.7c-0.8-1.3-0.5-3,0.7-3.8L282,50.9z M275.1,49.1l3.7-2.7l3.3,4.5l-3.8,2.7l-2.7,0.3L275.1,49.1z
				 M278.3,53.6c-1.3,0.9-3,0.6-3.8-0.7c-0.9-1.2-0.6-3,0.7-3.8L278.3,53.6z"/>
			<path class="st2" d="M276.6,51.4l10,4.1c-0.1,0.7-0.4,1.4-0.7,2.1l-9.2,23.8c-3.3,8.4-6.6,17.5-10,26l-6.7,17.5l-0.4-1.3
				c-0.7-6.4-1.9-15.2-2.7-21.5l-3-22.9h-19.8c0,1.8,8.4,53.8,9.6,62.2c0.1,0.6,0.4,1.4,0.4,2.2h26.6c0.6,0,0.7-1,1.2-2.1L295.4,83
				c1.4-3.5,2.7-6.7,4.1-10.2c0.7-1.6,1.3-3.3,2.1-5.1c0.4-0.9,0.7-1.6,1-2.5c0.3-0.9,0.6-1.8,1-2.5c1.2,0.2,9,3.8,10.6,4.2
				c-0.1-1.2-0.7-3.3-0.9-4.4c-0.3-1.5-0.6-3-0.9-4.4l-3.8-18.1c-0.2-1.1-1.8-8.1-1.8-9c-0.6,0.1-1.3,0.7-1.9,1.1
				c-0.7,0.4-1.2,0.8-1.9,1.3c-0.7,0.5-1.2,0.9-1.9,1.3l-17,11.5c-1.3,0.9-2.4,1.7-3.7,2.6L276.6,51.4z"/>
		</g>
		<g>
			<path class="st0" d="M192.8,106.6h8.7v5.5h-8.7l-2.7-2.7L192.8,106.6z M192.8,112c-1.5,0-2.7-1.2-2.7-2.7c0-1.5,1.3-2.7,2.7-2.7
				V112z M190.5,105.5l5.5,0.7l0,0l-0.1,0.1v0.1v0.1v0.1l-0.1,0.1v0.1v0.1v0.1v0.1l-0.1,0.1v0.1v0.1v0.1l-0.1,0.1v0.1v0.1v0.1v0.1
				l-0.1,0.1v0.1v0.1v0.1v0.1v0.1v0.1v0.1l-0.1,0.1v0.1v0.1v0.1l0,0v0.1h-5.5v-0.1V109v-0.1v-0.1l0.1-0.1v-0.1v-0.1v-0.1v-0.1V108
				l0.1-0.1v-0.1v-0.1v-0.1v-0.1l0.1-0.1v-0.1v-0.1v-0.1l0.1-0.1v-0.1v-0.1v-0.1v-0.1l0.1-0.1V106v-0.1v-0.1l0.1-0.1v-0.1V105.5
				L190.5,105.5L190.5,105.5z M190.5,105.5c0.2-1.6,1.6-2.6,3.1-2.4c1.5,0.2,2.5,1.6,2.4,3L190.5,105.5z M196.9,98.9l-0.9,7.3
				l-5.5-0.7l0.9-7.3l0,0L196.9,98.9z M191.4,98.1c0.2-1.5,1.6-2.5,3.1-2.4c1.5,0.2,2.6,1.6,2.4,3.1L191.4,98.1z M194.6,92.1v5.5
				l2.7-2.7V95v0.1v0.1v0.1v0.1v0.1v0.1l-0.1,0.1v0.1v0.1v0.1v0.1l-0.1,0.1v0.1v0.1V97l-0.1,0.1v0.1v0.1v0.1l-0.1,0.1v0.1v0.1v0.1
				l-0.1,0.1v0.1v0.1v0.1l-0.1,0.1v0.1v0.1v0.1l-5.5-0.7l0.1-0.1v-0.1v-0.1v-0.1l0.1-0.1v-0.1v-0.1v-0.1l0.1-0.1v-0.1v-0.1v-0.1
				l0.1-0.1v-0.1v-0.1v-0.1v-0.1l0.1-0.1v-0.1v-0.1v-0.1v-0.1l0.1-0.1v-0.1v-0.1v-0.1v-0.1V95v-0.1v-0.1l0,0v-0.1L194.6,92.1z
				 M191.8,94.8c0.1-1.5,1.3-2.7,2.8-2.7c1.6,0,2.7,1.3,2.7,2.8L191.8,94.8z M207.7,92.8l-1.9,5.1l0,0l0,0h-0.1h-0.1l-0.2-0.1h-0.2
				l-0.3-0.1h-0.3l-0.3-0.1h-0.4h-0.4l-0.4-0.1h-0.4h-0.4h-0.4h-0.4h-0.4h-0.5l-0.4-0.1h-0.4H199h-0.4h-0.4l-0.4,0.1h-0.4h-0.4h-0.4
				h-0.4h-0.4h-0.3h-0.3h-0.3h-0.3v-5.5h0.3h0.2h0.3h0.4h0.3h0.4l0.4-0.1h0.4h0.4h0.4h0.4h0.4h0.4h0.5h0.4h0.5l0.4,0.1h0.5h0.4h0.4
				h0.4l0.5,0.1h0.4h0.4l0.4,0.1l0.4,0.1h0.4l0.4,0.1l0.4,0.1l0.4,0.1l0.4,0.1L207.7,92.8L207.7,92.8z M207.7,92.8
				c1.4,0.5,2.1,2.1,1.6,3.6c-0.5,1.4-2.1,2.1-3.5,1.6L207.7,92.8z M210,107.9l-5-2.4l0,0l0,0l0.1-0.1l0.1-0.2v-0.1l0.1-0.2l0.1-0.3
				l0.1-0.3l0.1-0.4l0.1-0.3l0.1-0.4l0.1-0.4v-0.4l0.1-0.4l0.1-0.4v-0.4l0.1-0.4v-0.4V100v-0.4v-0.4V99l-0.1-0.3v-0.2l-0.1-0.2
				l-0.1-0.2l-0.1-0.1v-0.1l0,0l0,0v0.1h0.1h0.1l1.9-5.1l0.7,0.3l0.6,0.4l0.5,0.4l0.5,0.5l0.4,0.6l0.3,0.5l0.2,0.6l0.1,0.5l0.1,0.6
				l0.1,0.6l0.1,0.5l0.1,0.6v0.5v0.6v0.5v0.5l-0.1,0.6v0.5l-0.1,0.5l-0.1,0.5l-0.1,0.4l-0.1,0.5l-0.1,0.4l-0.1,0.4l-0.1,0.4
				l-0.1,0.4l-0.1,0.4l-0.1,0.4l-0.1,0.3l-0.1,0.3l-0.1,0.3L210,107.9L210,107.9z M210,107.9c-0.7,1.3-2.3,1.9-3.6,1.3
				c-1.4-0.7-1.9-2.3-1.3-3.6L210,107.9z M201.5,112v-5.5l0,0h0.2h0.2h0.2h0.2l0.1-0.1h0.2h0.1h0.2l0.1-0.1h0.1l0.1-0.1h0.1l0.1-0.1
				h0.1l0.1-0.1h0.1l0.1-0.1h0.1l0.1-0.1h0.1l0.1-0.1l0,0l0.1-0.1h0.1v-0.1l0.1-0.1l0,0l0.1-0.1l0,0l0.1-0.1v-0.1l0,0l5,2.4
				l-0.1,0.3l-0.1,0.3l-0.2,0.3l-0.1,0.2l-0.2,0.3l-0.2,0.2l-0.2,0.2l-0.2,0.2l-0.3,0.2l-0.2,0.2l-0.3,0.1l-0.2,0.1l-0.3,0.1
				l-0.3,0.1l-0.2,0.1l-0.3,0.1l-0.3,0.1l-0.3,0.1l-0.3,0.1l-0.3,0.1l-0.3,0.1l-0.2,0.1h-0.3l-0.3,0.1h-0.3l-0.3,0.1h-0.3l-0.3,0.1
				h-0.3h-0.3h-0.4H201.5L201.5,112z M201.5,112c-1.5,0-2.7-1.2-2.7-2.7c0-1.5,1.3-2.7,2.7-2.7V112z M188.7,146.3h-18.6v-5.5h18.6
				l2.7,3L188.7,146.3z M188.7,140.8c1.5,0,2.7,1.2,2.7,2.7c0,1.5-1.3,2.7-2.7,2.7V140.8z M193.6,125.5l-2.1,18.4l-5.5-0.6l2.1-18.4
				l2.7-2.4L193.6,125.5z M188.1,124.8c0.1-1.5,1.6-2.6,3-2.4c1.5,0.1,2.6,1.6,2.4,3L188.1,124.8z M204.3,123.4l-2.4,5l0,0l0,0
				l-0.1-0.1h-0.1l-0.2-0.1h-0.2l-0.2-0.1h-0.3l-0.4-0.1H200l-0.4-0.1h-0.4h-0.4l-0.4-0.1h-0.4h-0.4h-0.4h-0.4h-0.4h-0.4h-0.4h-0.4
				h-0.4h-0.4h-0.4h-0.4h-0.4h-0.4h-0.4l-0.4,0.1h-0.3h-0.3h-0.3v-5.6h0.2h0.3h0.3h0.4h0.3h0.4h0.4h0.4h0.4h0.4h0.4h0.5h0.4h0.4h0.5
				h0.4h0.5h0.4h0.4l0.5,0.1h0.4h0.4l0.4,0.1h0.4l0.4,0.1l0.4,0.1l0.4,0.1l0.4,0.1l0.4,0.1l0.4,0.1l0.4,0.1L204.3,123.4L204.3,123.4
				z M204.3,123.4c1.3,0.7,1.9,2.3,1.3,3.6c-0.7,1.4-2.3,2-3.6,1.3L204.3,123.4z M207,137.2l-5.5-0.4l0,0v-0.4l0.1-0.4v-0.4l0.1-0.4
				l0.1-0.4l0.1-0.4l0.1-0.4v-0.4l0.1-0.4l0.1-0.4v-0.4l0.1-0.4l0.1-0.4v-0.4V131l0.1-0.4v-0.3v-0.4v-0.3l-0.1-0.2v-0.2l-0.1-0.2
				v-0.2l-0.1-0.1v-0.1l-0.1-0.1l0,0l-0.1-0.1l0,0l0,0l0,0l0,0l2.4-5l0.5,0.3l0.5,0.4l0.4,0.4l0.4,0.5l0.4,0.4l0.3,0.5l0.2,0.5
				l0.1,0.4l0.2,0.5l0.1,0.5l0.1,0.5l0.1,0.5l0.1,0.4v0.5v0.4v0.5l-0.1,0.4v0.4l-0.1,0.5v0.4l-0.1,0.4l-0.1,0.4l-0.1,0.4v0.4
				l-0.1,0.4l-0.1,0.4l-0.1,0.4v0.4l-0.1,0.4l-0.1,0.3v0.3V137.2L207,137.2z M207,137.2c-0.1,1.5-1.5,2.6-3,2.5
				c-1.5-0.1-2.6-1.5-2.4-3L207,137.2z M203.5,140.8v5.5l-2.7-2.7v-0.3V143v-0.2v-0.2v-0.3l0.1-0.2v-0.2v-0.2l0.1-0.2v-0.2V141
				l0.1-0.2v-0.2v-0.2l0.1-0.2v-0.2l0.1-0.2v-0.2v-0.2l0.1-0.1v-0.2l0.1-0.2v-0.2v-0.1l0.1-0.2v-0.2v-0.1l0.1-0.2v-0.1V137v-0.1
				l0.1-0.1l5.5,0.4l-0.1,0.2v0.2v0.2l-0.1,0.2v0.2v0.2l-0.1,0.2v0.2l-0.1,0.2v0.2v0.1l-0.1,0.2v0.2l-0.1,0.2v0.2v0.1l-0.1,0.2v0.2
				l-0.1,0.1v0.2v0.1v0.2l-0.1,0.1v0.2v0.1v0.2l-0.1,0.1v0.2v0.1v0.1v0.2v0.1L203.5,140.8z M206.3,143.6c0,1.5-1.3,2.7-2.7,2.7
				c-1.6,0-2.7-1.3-2.7-2.7H206.3z M222.4,146.3h-18.9v-5.5h18.9l2.7,3L222.4,146.3z M222.4,140.8c1.6,0,2.8,1.2,2.8,2.7
				c0,1.5-1.3,2.7-2.8,2.7V140.8z M226.2,135.8l-1,8.1l-5.4-0.7l1-8.1v-0.1L226.2,135.8z M220.7,135.1c0.2-1.6,1.6-2.6,3-2.4
				c1.6,0.1,2.6,1.6,2.4,3L220.7,135.1z M221.1,131.2l5.5,0.5l0,0v0.1v0.1l-0.1,0.1v0.1v0.1v0.1v0.1v0.1l-0.1,0.1v0.1v0.1v0.1v0.1
				l-0.1,0.1v0.1v0.1v0.1v0.1v0.1l-0.1,0.1v0.1v0.1v0.1v0.1l-0.1,0.1v0.1v0.1v0.1l-0.1,0.1v0.1v0.1v0.1l-5.5-0.7V135l0.1-0.1v-0.1
				v-0.1v-0.1l0.1-0.1v-0.1v-0.1v-0.1v-0.1l0.1-0.1v-0.1v-0.1v-0.1v-0.1v-0.1l0.1-0.1v-0.1v-0.1v-0.1v-0.1v-0.1l0.1-0.1v-0.1V132
				v-0.1v-0.1v-0.1l0.1-0.1v-0.1V131.2L221.1,131.2L221.1,131.2z M221.1,131.2c0.1-1.6,1.5-2.7,3-2.5c1.5,0.1,2.6,1.5,2.4,3
				L221.1,131.2z M219.8,121.6l4.4-3.3l0,0l0.3,0.4l0.3,0.4l0.3,0.4l0.2,0.4l0.2,0.4l0.2,0.4l0.2,0.4l0.1,0.4l0.1,0.4l0.1,0.4
				l0.1,0.4l0.1,0.4l0.1,0.4l0.1,0.4v0.4l0.1,0.4v0.4l0.1,0.4v0.4v0.4v0.4v0.4l-0.1,0.4v0.4v0.4l-0.1,0.4v0.4l-0.1,0.4v0.4l-0.1,0.4
				l-0.1,0.4v0.4l-5.5-0.5l0.1-0.4v-0.4l0.1-0.4v-0.4l0.1-0.4v-0.4l0.1-0.4v-0.3v-0.4l0.1-0.3v-0.4v-0.3v-0.3v-0.2l-0.1-0.3v-0.3
				v-0.2l-0.1-0.3v-0.2l-0.1-0.2l-0.1-0.2l-0.1-0.3l-0.1-0.2l-0.1-0.2l-0.1-0.3l-0.1-0.2l-0.1-0.2l-0.1-0.3l-0.2-0.3l-0.1-0.2
				l-0.2-0.3L219.8,121.6L219.8,121.6z M219.8,121.6c-1-1.3-0.7-3,0.5-3.8c1.3-0.9,3-0.7,3.8,0.5L219.8,121.6z M217.2,119.7l2.1-5.1
				l0,0l0.1,0.1l0.2,0.1l0.1,0.1l0.1,0.1l0.1,0.1l0.1,0.1l0.2,0.1l0.1,0.1l0.1,0.1l0.1,0.1l0.1,0.1l0.1,0.1l0.1,0.1l0.2,0.1l0.1,0.1
				l0.1,0.1l0.1,0.1l0.1,0.1l0.1,0.1l0.1,0.1l0.1,0.1l0.1,0.1l0.1,0.1l0.1,0.1l0.1,0.1l0.1,0.1l0.1,0.1l0.1,0.1l0.1,0.1l0.1,0.1
				l0.1,0.1l0.1,0.1l-4.4,3.3l-0.1-0.1l0,0l-0.1-0.1v-0.1h-0.1l-0.1-0.1l-0.1-0.1l-0.1-0.1l-0.1-0.1l-0.1-0.1l-0.1-0.1l-0.1-0.1
				l-0.1-0.1l-0.1-0.1l-0.1-0.1l-0.1-0.1l-0.1-0.1l-0.1-0.1l-0.1-0.1l-0.1-0.1l-0.1-0.1H218l-0.1-0.1l-0.1-0.1l-0.1-0.1h-0.1
				l-0.1-0.1l-0.1-0.1h-0.1l-0.1-0.1H217.2L217.2,119.7L217.2,119.7z M217.2,119.7c-1.3-0.6-2-2.2-1.4-3.6c0.6-1.4,2.1-2.1,3.6-1.5
				L217.2,119.7z M216.1,113.7l1.3,5.4l1.2-4.8h-0.1l0,0l0,0l-0.1-0.1l0,0l0,0l0,0l0,0l0,0l0,0l0,0l0,0l0,0l0,0l0.1,0.1l0,0l0,0h0.1
				l0,0h0.1l0.1,0.1l0,0h0.1h0.1v0.1h0.1h0.1l0.1,0.1h0.1h0.1l0.1,0.1h0.1l-2.1,5.1v-0.1l0,0h-0.1l0,0h-0.1l0,0l-0.1-0.1h-0.1l0,0
				h-0.1l-0.1-0.1h-0.1l0,0l-0.1-0.1h-0.1h-0.1l-0.1-0.1h-0.1l-0.1-0.1h-0.1l-0.1-0.1H216l-0.1-0.1l-0.1-0.1h-0.1l-0.1-0.1l-0.1-0.1
				l-0.1-0.1l-0.1-0.1l-0.1-0.1l-0.1-0.1l-0.1-0.1L216.1,113.7z M214.9,118.5c-1.1-1-1.3-2.7-0.3-3.8c1-1.1,2.7-1.3,3.9-0.3
				L214.9,118.5z M223.5,106.8l5.1,2l0,0l-0.1,0.4l-0.2,0.4l-0.2,0.4l-0.2,0.4l-0.2,0.4l-0.2,0.4l-0.3,0.4l-0.2,0.4l-0.3,0.4
				l-0.3,0.4l-0.3,0.4l-0.3,0.4l-0.3,0.4l-0.3,0.4l-0.4,0.4l-0.4,0.3l-0.3,0.4l-0.4,0.3l-0.4,0.3l-0.4,0.4l-0.4,0.3l-0.4,0.2
				l-0.4,0.3l-0.4,0.2l-0.4,0.3l-0.4,0.2l-0.4,0.2l-0.4,0.1l-0.5,0.2l-0.5,0.1l-0.4,0.1l-0.5,0.1l-1.3-5.4l0.3-0.1l0.3-0.1l0.3-0.1
				l0.4-0.1l0.3-0.1l0.2-0.1l0.3-0.1l0.3-0.1l0.3-0.1l0.2-0.2l0.3-0.1l0.3-0.2l0.2-0.1l0.2-0.2l0.3-0.2l0.2-0.2l0.2-0.2l0.2-0.3
				l0.2-0.2l0.2-0.2l0.2-0.3l0.2-0.3l0.1-0.2l0.2-0.3l0.2-0.3l0.1-0.3l0.1-0.3l0.1-0.3l0.2-0.3l0.1-0.4l0.1-0.3L223.5,106.8
				L223.5,106.8z M223.5,106.8c0.6-1.4,2.2-2.1,3.6-1.6c1.4,0.6,2.1,2.1,1.5,3.6L223.5,106.8z M224.9,99.9l5.4,0.7l0,0v0.2v0.3
				l-0.1,0.2v0.3l-0.1,0.3v0.2l-0.1,0.3v0.2v0.3l-0.1,0.2v0.3l-0.1,0.2l-0.1,0.2v0.3l-0.1,0.2v0.3l-0.1,0.2l-0.1,0.3v0.2l-0.1,0.3
				l-0.1,0.2l-0.1,0.3l-0.1,0.2l-0.1,0.2v0.3l-0.1,0.2l-0.1,0.3l-0.1,0.2l-0.1,0.3l-0.1,0.2l-0.1,0.3l-0.1,0.2l-5.1-2l0.1-0.2
				l0.1-0.1l0.1-0.2l0.1-0.1l0.1-0.2l0.1-0.1v-0.2l0.1-0.1l0.1-0.2v-0.1l0.1-0.2l0.1-0.2v-0.1l0.1-0.2v-0.2l0.1-0.2v-0.1l0.1-0.2
				v-0.2l0.1-0.2v-0.2l0.1-0.2v-0.2v-0.3l0.1-0.2v-0.2l0.1-0.2v-0.3l0.1-0.2v-0.3v-0.2L224.9,99.9L224.9,99.9z M224.9,99.9
				c0.1-1.5,1.6-2.6,3-2.4c1.5,0.1,2.6,1.5,2.4,3L224.9,99.9z M225.4,92.1l5.5-0.3l0,0v0.4v0.3v0.4v0.3l0.1,0.3v0.3v0.3v0.2v0.3
				l-0.1,0.3v0.2v0.3v0.2v0.2l-0.1,0.3v0.2v0.2v0.2l-0.1,0.2v0.3l-0.1,0.2v0.2v0.3l-0.1,0.2v0.2l-0.1,0.3V99l-0.1,0.3v0.3l-0.1,0.3
				v0.3l-0.1,0.4l-5.4-0.7v-0.4l0.1-0.3v-0.3l0.1-0.3v-0.3l0.1-0.3v-0.2l0.1-0.2v-0.3v-0.2l0.1-0.2v-0.2l0.1-0.2v-0.1v-0.2v-0.2
				l0.1-0.1v-0.2v-0.2v-0.1v-0.2v-0.2v-0.2v-0.1v-0.2v-0.3v-0.2v-0.2V93v-0.3v-0.3V92.1L225.4,92.1z M225.4,92.1
				c-0.1-1.5,1-2.8,2.6-2.9c1.5-0.1,2.8,1.1,2.9,2.6L225.4,92.1z M204.6,81.9v-5.5l0,0h1h1h1h1l1,0.1l1,0.1l1,0.1l1,0.1l1,0.1l1,0.1
				l1,0.1l1,0.2l1,0.2l1,0.3l1,0.3l1,0.3l1,0.4l0.9,0.4l1,0.5l0.9,0.5l0.8,0.6l0.9,0.7l0.7,0.7l0.7,0.8l0.7,0.9l0.6,1l0.5,1l0.4,1.1
				l0.4,1.1l0.2,1.2l0.2,1.3l0.1,1.3l-5.5,0.3l-0.1-0.9l-0.1-0.9l-0.2-0.7l-0.2-0.7l-0.2-0.6l-0.4-0.6l-0.3-0.6l-0.4-0.5l-0.4-0.4
				l-0.5-0.4l-0.4-0.4l-0.6-0.4l-0.6-0.4l-0.6-0.3l-0.7-0.4l-0.7-0.2l-0.7-0.3l-0.8-0.2l-0.8-0.2l-0.8-0.1l-0.9-0.2l-0.9-0.1
				l-0.9-0.1l-1-0.1l-1-0.1l-0.9-0.1l-1-0.1h-1l-1-0.1h-0.9h-1H204.6L204.6,81.9z M204.6,81.9c-1.5,0-2.7-1.3-2.7-2.7
				c0-1.6,1.3-2.7,2.7-2.7V81.9z M178.2,76.4h26.3v5.5h-26.3l0,0V76.4z M178.2,81.9c-1.6,0-2.7-1.3-2.7-2.7c0-1.6,1.2-2.7,2.7-2.7
				V81.9z M180.3,81l-5.5-0.7l0,0h0.1v-0.1l0,0v-0.1l0,0v-0.1v-0.1l0,0V80v-0.1v-0.1v-0.1v-0.1v-0.1v-0.1l0.1-0.1V79l0.1-0.1
				l0.1-0.2l0.1-0.3l0.1-0.2l0.1-0.2l0.2-0.3l0.2-0.3l0.2-0.2l0.4-0.1l0.3-0.1l0.3-0.1l0.3-0.1l0.3-0.1h0.2h0.3v5.5h0.1h0.1l0.1-0.1
				l0.2-0.1l0.2-0.1l0.2-0.1l0.2-0.1l0.2-0.2l0.1-0.1l0.1-0.2l0.1-0.1l0.1-0.2l0.1-0.1v-0.1l0.1-0.1v-0.1l0,0V80l0,0l0,0l0,0v0.1
				v0.1l0,0v0.1v0.1v0.1v0.1v0.1l-0.1,0.1v0.1V81L180.3,81z M180.3,81c-0.1,1.5-1.6,2.6-3,2.4c-1.6-0.1-2.6-1.6-2.4-3L180.3,81z
				 M168.3,135l6.5-54.6l5.5,0.7l-6.5,54.6L168.3,135L168.3,135z M173.8,135.6c-0.2,1.5-1.6,2.6-3,2.4c-1.6-0.2-2.6-1.6-2.4-3.1
				L173.8,135.6z M170.2,140.8v5.5l-2.7-2.7v-0.2V143v-0.2v-0.2l0.1-0.3v-0.2v-0.3l0.1-0.2v-0.3V141l0.1-0.3v-0.3l0.1-0.3v-0.3v-0.3
				l0.1-0.3v-0.3l0.1-0.3v-0.3l0.1-0.3v-0.3l0.1-0.2v-0.3l0.1-0.3v-0.3l0.1-0.2v-0.2l0.1-0.3v-0.2v-0.2l0.1-0.2V135l5.5,0.7
				l-0.1,0.2v0.2v0.2l-0.1,0.2v0.3l-0.1,0.2v0.3l-0.1,0.3v0.2l-0.1,0.3v0.3l-0.1,0.3v0.3l-0.1,0.2v0.3v0.3l-0.1,0.3v0.3l-0.1,0.3
				v0.2l-0.1,0.3v0.2v0.3L173,142v0.2v0.3v0.1l-0.1,0.2v0.2v0.1v0.1v0.1L170.2,140.8z M172.9,143.6c0,1.5-1.2,2.7-2.7,2.7
				c-1.5,0-2.7-1.3-2.7-2.7H172.9z"/>
			<path class="st2" d="M201.5,109.3h-8.7c0-1,0.3-2.4,0.4-3.5l0.9-7.3c0.1-1.1,0.4-2.7,0.4-3.6c2.5,0,10.2-0.2,12.2,0.5
				c3.5,1.3,1.4,9.9,0.7,11.3C206.6,108.6,204.3,109.3,201.5,109.3z M170.2,143.6h18.6l2.1-18.4c2.7,0,10.1-0.4,12.2,0.6
				c3.3,1.6,1.4,7.8,1.2,11.2c-0.2,2.1-0.7,4.4-0.7,6.6h18.9l1-8.1c0.2-1.4,0.3-2.6,0.4-4c0.4-4.6,1-7.6-1.9-11.5
				c-0.7-1-2.4-2.3-3.6-2.8c-0.6-0.2-1.2-0.4-1.6-0.7c4.4-1,7.7-4.5,9.4-8.7c0.9-2.3,1.2-4.7,1.6-7.5c0.4-3.6,0.7-4.7,0.5-8.2
				c-0.7-12.1-13.6-12.8-23.6-12.8h-26.3c-0.7,0-0.5,0.7-0.7,1.5l-6.5,54.7C170.8,137.5,170.2,141.7,170.2,143.6z"/>
		</g>
		<g>
			<path class="st0" d="M67,114.4l-0.9,5.4l0,0l-0.7-0.1l-0.7-0.1l-0.7-0.2l-0.7-0.1l-0.7-0.2l-0.7-0.3l-0.7-0.2l-0.6-0.3l-0.7-0.4
				l-0.6-0.3l-0.6-0.4l-0.6-0.4l-0.6-0.4l-0.5-0.4l-0.5-0.4l-0.5-0.5l-0.4-0.5l-0.4-0.5l-0.4-0.6l-0.4-0.6l-0.4-0.7l-0.3-0.6
				l-0.3-0.7l-0.2-0.7l-0.3-0.7l-0.1-0.7l-0.2-0.7l-0.1-0.7l-0.1-0.8l-0.1-0.7l-0.1-0.8v-0.9h5.5v0.7l0.1,0.6l0.1,0.6l0.1,0.5
				l0.1,0.5l0.1,0.5l0.1,0.4l0.1,0.5l0.2,0.4l0.1,0.4l0.2,0.4l0.2,0.4l0.2,0.4l0.2,0.4l0.3,0.3l0.2,0.4l0.3,0.3l0.4,0.3l0.3,0.2
				l0.4,0.3l0.4,0.2l0.4,0.3l0.4,0.2l0.4,0.2l0.4,0.1l0.4,0.2l0.5,0.1l0.5,0.2l0.5,0.1l0.6,0.1l0.5,0.1L67,114.4L67,114.4z
				 M67,114.4c1.6,0.2,2.5,1.7,2.3,3.2c-0.3,1.5-1.7,2.4-3.2,2.2L67,114.4z M83.9,116.3l-0.8,5.4l0,0l-0.4-0.1l-0.4-0.1h-0.4
				l-0.5-0.1l-0.4-0.1l-0.5-0.1l-0.5-0.1h-0.5l-0.5-0.1l-0.6-0.1l-0.5-0.1h-0.6l-0.5-0.1l-0.6-0.1h-0.6l-0.6-0.1l-0.5-0.1l-0.6-0.1
				h-0.6l-0.6-0.1l-0.5-0.1l-0.6-0.1l-0.6-0.1h-0.5l-0.6-0.1l-0.5-0.1l-0.5-0.1l-0.5-0.1l-0.5-0.1l-0.5-0.1l-0.5-0.1l-0.4-0.1
				l0.9-5.4l0.4,0.1l0.4,0.1l0.4,0.1l0.5,0.1h0.4l0.5,0.1l0.5,0.1l0.5,0.1l0.5,0.1l0.6,0.1h0.5l0.6,0.1l0.5,0.1l0.6,0.1h0.6l0.5,0.1
				l0.6,0.1h0.6l0.6,0.1l0.5,0.1l0.6,0.1h0.6l0.5,0.1l0.6,0.1l0.5,0.1l0.5,0.1h0.6L82,116l0.4,0.1l0.5,0.1l0.5,0.1L83.9,116.3
				L83.9,116.3z M83.9,116.3c1.5,0.2,2.5,1.6,2.3,3.1c-0.2,1.5-1.6,2.5-3.1,2.3L83.9,116.3z M90.2,121.6h-5.6l0,0l0,0v0.1h0.1v0.1
				v0.1v0.1l0.1,0.1v0.1h0.1l0.1,0.1l0,0v0.1H85l0,0h-0.1l0,0v-0.1h-0.1h-0.1l-0.1-0.1h-0.1h-0.1l-0.1-0.1h-0.1h-0.1l-0.1-0.1h-0.1
				h-0.1l-0.1-0.1h-0.1h-0.1l-0.1-0.1l0.8-5.4h0.2l0.1,0.1h0.2l0.1,0.1h0.2l0.2,0.1h0.1l0.2,0.1h0.2l0.2,0.1l0.2,0.1l0.2,0.1
				l0.2,0.1l0.3,0.1l0.2,0.1l0.2,0.1l0.2,0.1l0.3,0.1l0.2,0.1l0.3,0.2l0.2,0.2l0.2,0.2l0.2,0.2l0.2,0.3l0.2,0.3l0.1,0.3l0.1,0.4
				l0.1,0.4l0.1,0.4l0.1,0.4v0.3L90.2,121.6L90.2,121.6z M90.2,121.6c0,1.6-1.3,2.7-2.8,2.7c-1.5,0-2.7-1.2-2.7-2.7H90.2z
				 M74.3,131.6v-5.5l0,0h0.9h0.9h0.8l0.7,0.1h0.7h0.7h0.7h0.6h0.5h0.5l0.5-0.1h0.4l0.4-0.1L83,126l0.2-0.1h0.2l0.1-0.1l0.1-0.1
				l0.1-0.1l0.1-0.1l0.1-0.1l0.1-0.1l0.1-0.1l0.1-0.1l0.1-0.2l0.1-0.3l0.1-0.4l0.1-0.4l0.1-0.4l0.1-0.6v-0.6v-0.7h5.6l-0.1,0.9v0.8
				l-0.1,0.8l-0.1,0.7l-0.1,0.7l-0.1,0.7l-0.2,0.6l-0.3,0.7l-0.3,0.6l-0.4,0.6l-0.4,0.6l-0.4,0.4l-0.5,0.4l-0.6,0.4l-0.6,0.3
				l-0.6,0.2l-0.6,0.2l-0.6,0.1l-0.6,0.1l-0.6,0.1l-0.7,0.1l-0.6,0.1H81h-0.7h-0.7H79h-0.7h-0.7h-0.8l-0.7-0.1h-0.8H74.3L74.3,131.6
				z M74.3,131.6c-1.5,0-2.7-1.2-2.7-2.7c0-1.5,1.3-2.7,2.7-2.7V131.6z M69.9,125.1v-5.5l2.7,2.8v0.3v0.2l-0.1,0.3v0.2v0.2l-0.1,0.2
				v0.2v0.2v0.2v0.2v0.1v0.2v0.1v0.1v0.1l0.1,0.1v0.1l0,0v0.1h0.1l0,0l0,0v0.1h0.1l0,0l0.1,0.1l0.1,0.1h0.2l0.2,0.1l0.3,0.1H74h0.4
				v5.5h-0.7l-0.7-0.1l-0.6-0.1l-0.6-0.1l-0.6-0.1l-0.6-0.2l-0.5-0.2l-0.5-0.4l-0.4-0.3l-0.4-0.4l-0.4-0.4l-0.3-0.4l-0.3-0.4
				l-0.2-0.4l-0.1-0.4l-0.1-0.5l-0.1-0.4l-0.1-0.4l-0.1-0.4v-0.4V125v-0.4v-0.4V124v-0.3l0.1-0.3v-0.3v-0.2l0.1-0.2v-0.1v-0.1v-0.1
				L69.9,125.1z M67.1,122.2c0.1-1.5,1.3-2.7,2.8-2.7c1.5,0,2.7,1.3,2.7,2.8L67.1,122.2z M51.9,119.6h18v5.5h-18l-2.7-2.7
				L51.9,119.6z M51.9,125.1c-1.6,0-2.7-1.3-2.7-2.7c0-1.5,1.2-2.7,2.7-2.7V125.1z M53.9,129.8h-5.5v-0.1v-0.3l0.1-0.2v-0.3v-0.2
				l0.1-0.3v-0.2v-0.3l0.1-0.2v-0.2v-0.3l0.1-0.2v-0.2l0.1-0.2v-0.3l0.1-0.2v-0.2v-0.2l0.1-0.2V125v-0.2l0.1-0.2v-0.2v-0.2l0.1-0.2
				v-0.2v-0.1v-0.2v-0.2v-0.1l0.1-0.2v-0.1v-0.2h5.5v0.3v0.2v0.3l-0.1,0.2v0.3v0.2v0.2l-0.1,0.3v0.2v0.2l-0.1,0.3v0.2v0.2l-0.1,0.3
				v0.2l-0.1,0.2v0.3v0.2l-0.1,0.2v0.2l-0.1,0.2v0.2v0.3l-0.1,0.2v0.2v0.2l-0.1,0.2v0.2v0.2l-0.1,0.2V129.8v0.2V129.8z M53.9,130
				c-0.1,1.5-1.4,2.7-2.9,2.5c-1.6-0.1-2.7-1.3-2.6-2.9L53.9,130z M48.4,132.5v-2.7h5.5v2.7l-5.5,0.2V132.5z M53.9,132.5
				c0,1.5-1.2,2.7-2.7,2.7c-1.5,0-2.7-1.3-2.7-2.7H53.9z M55.3,136.5l-4.7,3l0,0l-0.1-0.2l-0.1-0.2l-0.1-0.2l-0.1-0.2l-0.1-0.2
				l-0.1-0.1l-0.1-0.2l-0.1-0.2l-0.1-0.2l-0.1-0.2l-0.1-0.2l-0.1-0.2l-0.1-0.2l-0.1-0.2l-0.1-0.2l-0.1-0.2l-0.1-0.1l-0.1-0.2
				l-0.1-0.2l-0.1-0.2V135l-0.1-0.2v-0.2l-0.1-0.2l-0.1-0.2v-0.1v-0.2l-0.1-0.2v-0.2v-0.2l-0.1-0.2v-0.1l5.5-0.4v0.1v0.1l0.1,0.1
				v0.1v0.1v0.1l0.1,0.1v0.1v0.1l0.1,0.1v0.1v0.1l0.1,0.1v0.1l0.1,0.1v0.1l0.1,0.1l0.1,0.1v0.1l0.1,0.1l0.1,0.1v0.1l0.1,0.1l0.1,0.1
				l0.1,0.1l0.1,0.1v0.1l0.1,0.1l0.1,0.1l0.1,0.1l0.1,0.1L55.3,136.5L55.3,136.5z M55.3,136.5c0.8,1.3,0.4,3-0.8,3.8
				c-1.3,0.8-3,0.4-3.8-0.8L55.3,136.5z M58.4,139.1l-2.9,4.7l0,0l-0.1-0.1l-0.1-0.1l-0.1-0.1l-0.1-0.1l-0.1-0.1l-0.2-0.1l-0.1-0.1
				l-0.1-0.1l-0.1-0.1l-0.1-0.1l-0.1-0.1l-0.2-0.1l-0.1-0.1l-0.1-0.1l-0.1-0.1L53,142l-0.1-0.1l-0.1-0.1l-0.2-0.1l-0.1-0.1l-0.1-0.1
				l-0.1-0.1l-0.1-0.1l-0.1-0.1l-0.1-0.1l-0.1-0.2l-0.1-0.1l-0.1-0.1l-0.1-0.2l-0.1-0.1l-0.1-0.2l-0.1-0.1l4.7-3v0.1l0.1,0.1
				l0.1,0.1l0.1,0.1l0.1,0.1l0.1,0.1l0.1,0.1l0.1,0.1l0.1,0.1l0.1,0.1l0.1,0.1l0.1,0.1l0.1,0.1l0.1,0.1l0.1,0.1l0.1,0.1l0.1,0.1
				l0.1,0.1l0.1,0.1l0.1,0.1l0.1,0.1l0.1,0.1l0.1,0.1l0.1,0.1l0.1,0.1l0.1,0.1l0.1,0.1l0.1,0.1l0.1,0.1l0.1,0.1l0.1,0.1L58.4,139.1
				L58.4,139.1z M58.4,139.1c1.3,0.8,1.7,2.5,0.9,3.8c-0.7,1.3-2.4,1.7-3.8,1L58.4,139.1z M69.2,141.5v5.6l0,0l-0.5-0.1h-0.4h-0.4
				h-0.4l-0.5-0.1h-0.4l-0.4-0.1h-0.4l-0.5-0.1l-0.4-0.1l-0.4-0.1l-0.4-0.1l-0.4-0.1l-0.4-0.1l-0.4-0.1l-0.4-0.1l-0.4-0.1L61,146
				l-0.4-0.1l-0.4-0.1l-0.4-0.1l-0.4-0.1l-0.4-0.1l-0.4-0.1l-0.4-0.1l-0.4-0.1l-0.4-0.1l-0.4-0.1l-0.4-0.2l-0.3-0.1l-0.4-0.2
				l-0.4-0.1l2.9-4.7l0.1,0.1l0.2,0.1l0.2,0.1l0.3,0.1l0.2,0.1l0.3,0.1l0.3,0.1l0.3,0.1l0.3,0.1l0.3,0.1l0.3,0.1l0.4,0.1l0.3,0.1
				l0.4,0.1l0.4,0.1l0.4,0.1l0.4,0.1l0.4,0.1l0.4,0.1l0.4,0.1l0.4,0.1l0.4,0.1h0.4l0.4,0.1l0.4,0.1h0.4h0.4l0.4,0.1H68h0.4h0.4H69.2
				L69.2,141.5z M69.2,141.5c1.5,0,2.7,1.3,2.7,2.7c0,1.6-1.3,2.8-2.7,2.8V141.5z M86.2,147H69.2v-5.6h16.9l0,0V147z M86.2,141.5
				c1.5,0,2.7,1.3,2.7,2.7c0,1.6-1.3,2.8-2.7,2.8V141.5z M102.7,128.2l5.4,1.1l0,0l-0.2,0.9l-0.2,1l-0.3,0.9l-0.4,1l-0.4,0.8
				l-0.4,0.9l-0.4,0.8l-0.5,0.8l-0.4,0.8l-0.6,0.7l-0.5,0.7l-0.7,0.7l-0.6,0.7l-0.7,0.7l-0.7,0.7l-0.7,0.6l-0.7,0.6l-0.7,0.5
				l-0.8,0.5l-0.8,0.4l-0.8,0.4l-0.9,0.4l-0.9,0.4l-0.9,0.4L93,146l-1,0.2l-1,0.2l-1,0.2l-1,0.1l-1,0.1l-1,0.1l-1,0.1v-5.6h0.7
				l0.7-0.1l0.8-0.1l0.7-0.1l0.7-0.1l0.7-0.1l0.7-0.2l0.7-0.2l0.7-0.3l0.7-0.2l0.7-0.4l0.7-0.3l0.6-0.4l0.6-0.4l0.6-0.4l0.5-0.4
				l0.6-0.4l0.5-0.4l0.4-0.5l0.5-0.5l0.4-0.5l0.4-0.6l0.4-0.5l0.4-0.6l0.4-0.7l0.3-0.6l0.4-0.7l0.2-0.7l0.3-0.7l0.2-0.7l0.1-0.7
				L102.7,128.2L102.7,128.2z M102.7,128.2c0.3-1.5,1.8-2.4,3.3-2.1c1.5,0.3,2.4,1.8,2.1,3.3L102.7,128.2z M103.9,116.3h5.5l0,0v0.4
				v0.4v0.4v0.4l-0.1,0.4v0.4v0.4v0.4l-0.1,0.4v0.4v0.4l-0.1,0.4v0.4l-0.1,0.4v0.4l-0.1,0.4v0.4l-0.1,0.4v0.4l-0.1,0.4l-0.1,0.4v0.4
				l-0.1,0.4l-0.1,0.4l-0.1,0.4l-0.1,0.4v0.4l-0.1,0.4l-0.1,0.4l-0.1,0.4l-0.1,0.4l-0.1,0.4l-5.4-1.1l0.1-0.3l0.1-0.4l0.1-0.3
				l0.1-0.4v-0.4l0.1-0.4l0.1-0.4l0.1-0.4v-0.4l0.1-0.4l0.1-0.4V124l0.1-0.4v-0.4l0.1-0.4l0.1-0.4V122v-0.4l0.1-0.4v-0.4l0.1-0.4
				V120v-0.4l0.1-0.4v-0.4v-0.4v-0.4v-0.4l0.1-0.4V117v-0.4V116.3L103.9,116.3z M103.9,116.3c0-1.5,1.2-2.7,2.7-2.7
				c1.5,0,2.7,1.3,2.7,2.7H103.9z M100.7,110l3.8-3.9l0,0l0.2,0.3l0.2,0.2l0.2,0.2l0.2,0.2l0.2,0.2l0.2,0.3l0.2,0.2l0.2,0.3l0.2,0.2
				l0.2,0.3l0.1,0.3l0.2,0.2l0.2,0.3l0.1,0.3l0.2,0.3l0.1,0.4l0.1,0.3l0.1,0.3l0.1,0.4l0.1,0.3l0.1,0.4l0.1,0.4l0.1,0.4l0.1,0.3
				l0.1,0.4l0.1,0.4l0.1,0.4l0.1,0.4v0.4l0.1,0.4v0.4v0.4h-5.5V116v-0.2l-0.1-0.3v-0.2v-0.1l-0.1-0.2l-0.1-0.2v-0.2l-0.1-0.2
				l-0.1-0.1l-0.1-0.2l-0.1-0.1l-0.1-0.2l-0.1-0.1l-0.1-0.2l-0.1-0.1l-0.1-0.2l-0.1-0.1l-0.1-0.2l-0.1-0.1l-0.1-0.2l-0.1-0.1
				l-0.1-0.1l-0.1-0.2l-0.1-0.1l-0.1-0.2l-0.1-0.1l-0.1-0.2l-0.2-0.1l-0.1-0.2l-0.1-0.1L100.7,110L100.7,110z M100.7,110
				c-1-1-1-2.8,0-3.8c1-1.1,2.8-1.1,3.8-0.1L100.7,110z M74.3,104.6l1.9-5.2l0,0l0.2,0.1l0.4,0.1l0.5,0.1l0.5,0.1l0.7,0.1l0.7,0.1
				l0.7,0.1l0.9,0.1l0.9,0.1l0.9,0.1l1,0.1l1,0.1l1,0.1l1,0.1l1.1,0.1l1.1,0.1l1,0.1l1.1,0.1l1.1,0.2l1.1,0.1l1,0.2l1.1,0.2l1,0.2
				l1,0.3l1,0.3l1,0.4l1,0.4l0.9,0.4l0.9,0.4l0.9,0.6l0.7,0.5l0.7,0.7l-3.8,3.9l-0.3-0.3l-0.4-0.3l-0.5-0.3l-0.5-0.3l-0.7-0.3
				l-0.7-0.3l-0.7-0.2l-0.8-0.3l-0.9-0.2l-0.9-0.2l-1-0.1l-1-0.2l-1-0.1l-1-0.1l-1-0.1l-1-0.1l-1-0.1l-1-0.1l-1-0.1l-1-0.1l-1-0.1
				l-1-0.1l-1-0.1l-0.9-0.1l-0.9-0.1l-0.9-0.1l-0.8-0.1l-0.7-0.1l-0.7-0.1l-0.7-0.1l-0.6-0.1L74.3,104.6L74.3,104.6z M74.3,104.6
				c-1.4-0.5-2.1-2.1-1.6-3.6c0.5-1.4,2.1-2.1,3.5-1.6L74.3,104.6z M71.5,96.4l5.4,0.8l0,0l-0.1,0.2v0.2l-0.1,0.2v0.2v0.2l-0.1,0.1
				v0.2l-0.1,0.1V99v0.1l-0.1,0.1v0.1v0.1v0.1v0.1v0.1l0,0v0.1l0,0l0,0v-0.1l0,0l-0.1-0.1v-0.1l-0.1-0.1l-0.1-0.1v-0.1h-0.1
				l-0.1-0.1l0,0l0,0l0,0l-1.9,5.2l-0.4-0.1l-0.4-0.1l-0.3-0.2l-0.4-0.2l-0.3-0.3l-0.3-0.2l-0.2-0.3l-0.2-0.4l-0.2-0.3l-0.1-0.4
				l-0.1-0.3l-0.1-0.4l-0.1-0.3l-0.1-0.4l-0.1-0.3V100v-0.2v-0.3v-0.3V99l0.1-0.3v-0.2l0.1-0.2v-0.2l0.1-0.2v-0.2v-0.2l0.1-0.2V97
				l0.1-0.2v-0.2L71.5,96.4L71.5,96.4z M71.5,96.4c0.2-1.5,1.6-2.5,3.1-2.3c1.5,0.2,2.5,1.6,2.3,3.1L71.5,96.4z M74.2,92l2.9,4.7
				l0,0l0,0l0,0h0.1v-0.1l0,0l0,0l0,0l0,0l0,0l0,0l0,0l0,0v0.1l0,0l0,0h-0.1l0,0v0.1l0,0v0.1l0,0H77v0.1l0,0v0.1l0,0V97l-0.1,0.1
				l0,0v0.1v0.1l0,0l-5.4-0.8v-0.1v-0.1l0.1-0.1v-0.1l0.1-0.1v-0.1l0.1-0.1v-0.1l0.1-0.1l0.1-0.1v-0.1l0.1-0.1l0.1-0.1l0.1-0.1
				l0.1-0.1l0.1-0.1l0.1-0.1l0.1-0.1l0.1-0.1l0.1-0.1l0.1-0.1l0.1-0.1l0.1-0.1l0.1-0.1l0.1-0.1l0.1-0.1l0.1-0.1l0.1-0.1l0.1-0.1
				l0.1-0.1l0.1-0.1L74.2,92L74.2,92z M74.2,92c1.3-0.8,3-0.4,3.8,0.9c0.8,1.3,0.4,3-0.9,3.8L74.2,92z M80.5,90.7l0.3,5.5l0,0h-0.1
				h-0.1h-0.1h-0.1H80h-0.1h-0.1l-0.1,0.1h-0.2h-0.1h-0.1h-0.1h-0.1l-0.1,0.1h-0.1h-0.1h-0.1L78,96.4h-0.1h-0.1l-0.1,0.1h-0.1h-0.1
				l-0.1,0.1h-0.1h-0.1l-0.1,0.1h-0.1l0,0l0,0l0,0l0,0L74.2,92l0.2-0.1l0.2-0.1l0.2-0.1l0.2-0.1l0.2-0.1l0.2-0.1l0.2-0.1l0.2-0.1
				l0.1-0.1h0.2l0.2-0.1h0.2L77,91h0.1l0.2-0.1h0.2l0.2-0.1h0.1h0.2l0.2-0.1h0.1h0.2H79h0.1l0.2-0.1h0.1h0.1h0.2H80h0.1h0.1H80.5
				L80.5,90.7z M80.5,90.7c1.5-0.1,2.8,1,2.9,2.6c0.1,1.5-1.1,2.7-2.6,2.9L80.5,90.7z M88.2,91.2l-1.6,5.3l0,0l0,0l0,0h-0.1h-0.1
				h-0.1l-0.1-0.1h-0.1h-0.1h-0.2l-0.1-0.1h-0.2H85h-0.2l-0.2-0.1h-0.3H84h-0.2h-0.2h-0.3h-0.2l-0.2-0.1h-0.2h-0.2h-0.2h-0.2h-0.2
				h-0.2h-0.1h-0.2H81h-0.1l-0.1,0.1l-0.3-5.5l0.1-0.1h0.2h0.2h0.2h0.2h0.2h0.2h0.2h0.3h0.2H83h0.2l0.3,0.1h0.2H84h0.3h0.2h0.3
				l0.2,0.1h0.3h0.2h0.3l0.2,0.1h0.3h0.2l0.2,0.1H87l0.2,0.1h0.2l0.2,0.1h0.2L88.2,91.2L88.2,91.2z M88.2,91.2
				c1.5,0.5,2.3,2,1.8,3.5c-0.4,1.4-2,2.2-3.4,1.8L88.2,91.2z M89.2,96.4v5.5l-2.8-2.7l0.1-0.3v-0.3v-0.2v-0.2v-0.2l0.1-0.2v-0.2
				v-0.2v-0.1l0.1-0.1v-0.1v-0.1v-0.1v-0.1v-0.1v-0.1l0,0l0,0l0,0l0,0l0,0v0.1l0.1,0.1l0,0l0.1,0.1l0,0v0.1h0.1l-0.1-0.1l0,0h-0.1
				l-0.1-0.1l1.6-5.3l0.4,0.1l0.4,0.1l0.4,0.2l0.4,0.2l0.3,0.2l0.4,0.2l0.3,0.3L91,93l0.2,0.3l0.2,0.4l0.1,0.4l0.1,0.3l0.1,0.4
				l0.1,0.4l0.1,0.3l0.1,0.4v0.3v0.3v0.2v0.3v0.2v0.2L92,97.6v0.1V98l-0.1,0.2v0.1v0.2v0.1v0.1V99v0.1L89.2,96.4z M91.9,99.2
				c0,1.5-1.3,2.7-2.7,2.7c-1.6,0-2.8-1.3-2.8-2.7H91.9z M106.7,101.9H89.2v-5.5h17.5l0,0V101.9z M106.7,96.4c1.5,0,2.7,1.2,2.7,2.7
				c0,1.5-1.3,2.7-2.7,2.7V96.4z M104.7,96.1l5.5,0.6l0,0v0.1l-0.1,0.1V97v0.1v0.1v0.1v0.1v0.1v0.1l-0.1,0.1v0.1v0.1v0.1v0.1v0.1
				l-0.1,0.2v0.1v0.1l-0.1,0.2l-0.1,0.1l-0.1,0.2l-0.1,0.3l-0.1,0.2l-0.1,0.3l-0.2,0.3l-0.3,0.2l-0.3,0.3l-0.4,0.2l-0.4,0.1
				l-0.4,0.1l-0.4,0.1h-0.3v-5.5h-0.2h-0.2l-0.3,0.1l-0.3,0.1l-0.3,0.1l-0.2,0.2l-0.1,0.1l-0.1,0.2l-0.1,0.1l-0.1,0.1v0.1l-0.1,0.1
				V98l0,0l0,0l0,0l0,0v-0.1v-0.1v-0.1v-0.1v-0.1l0.1-0.1v-0.1v-0.1V97v-0.1v-0.1v-0.1l0.1-0.2v-0.1V96.1L104.7,96.1z M104.7,96.1
				c0.1-1.6,1.6-2.7,3-2.4c1.5,0.1,2.6,1.5,2.4,3L104.7,96.1z M101.2,83.8l3-4.6l0,0l0.6,0.4l0.6,0.4l0.6,0.4l0.4,0.4l0.5,0.5
				l0.4,0.5l0.4,0.5l0.4,0.5l0.4,0.6l0.3,0.5l0.3,0.6l0.2,0.6l0.2,0.6l0.2,0.5l0.1,0.6l0.1,0.6l0.1,0.6l0.1,0.6l0.1,0.6l0.1,0.6
				l0.1,0.5v0.6v0.6v0.5v0.6l-0.1,0.6v0.5v0.6l-0.1,0.5l-0.1,0.5l-0.1,0.5v0.6l-5.5-0.6l0.1-0.5V95l0.1-0.5l0.1-0.4v-0.5v-0.4
				l0.1-0.5v-0.4v-0.4v-0.4v-0.4l-0.1-0.4V90l-0.1-0.4l-0.1-0.4l-0.1-0.4l-0.1-0.4l-0.1-0.4l-0.1-0.4l-0.1-0.4l-0.1-0.3l-0.1-0.3
				l-0.1-0.4l-0.2-0.3l-0.2-0.3l-0.2-0.3l-0.2-0.3l-0.3-0.3l-0.3-0.3l-0.3-0.3l-0.4-0.2L101.2,83.8L101.2,83.8z M101.2,83.8
				c-1.3-0.8-1.6-2.5-0.7-3.8c0.8-1.3,2.5-1.6,3.8-0.8L101.2,83.8z M91.1,81.2v-5.5l0,0h0.4h0.5l0.4,0.1H93h0.5l0.4,0.1l0.4,0.1h0.4
				l0.4,0.1l0.4,0.1l0.4,0.1l0.4,0.1l0.4,0.1l0.4,0.1l0.4,0.1l0.4,0.1l0.4,0.1l0.4,0.1l0.4,0.1l0.4,0.1l0.4,0.1l0.4,0.1l0.4,0.1
				l0.4,0.1l0.4,0.2l0.4,0.1l0.4,0.1l0.3,0.2l0.4,0.1l0.4,0.2l0.3,0.1l0.3,0.2l-3,4.6l-0.1-0.1l-0.2-0.1l-0.2-0.1l-0.2-0.1l-0.3-0.1
				L99.9,83l-0.2-0.1l-0.3-0.1L99,82.7l-0.3-0.1l-0.3-0.1l-0.3-0.1l-0.3-0.1l-0.3-0.1l-0.4-0.1l-0.3-0.1l-0.4-0.1l-0.3-0.1l-0.4-0.1
				l-0.3-0.1l-0.4-0.1l-0.4-0.1h-0.4l-0.4-0.1l-0.4-0.1h-0.4L93,81.3h-0.4h-0.4l-0.4-0.1h-0.4H91.1L91.1,81.2z M91.1,81.2
				c-1.5,0-2.7-1.2-2.7-2.7c0-1.5,1.3-2.7,2.7-2.7V81.2z M76.7,75.7h14.4v5.5H76.7l0,0V75.7z M76.7,81.2c-1.6,0-2.7-1.2-2.7-2.7
				c0-1.5,1.2-2.7,2.7-2.7V81.2z M67.4,82.7l-1.8-5.2l0,0l0.3-0.1l0.3-0.1l0.3-0.1l0.4-0.1l0.3-0.1l0.3-0.1l0.3-0.1l0.4-0.1l0.3-0.1
				l0.3-0.1l0.4-0.1l0.3-0.1l0.4-0.1l0.3-0.1l0.4-0.1l0.4-0.1l0.3-0.1l0.4-0.1h0.4l0.4-0.1l0.4-0.1h0.3l0.4-0.1h0.4l0.4-0.1h0.4h0.4
				h0.4l0.4-0.1h0.4h0.4h0.4v5.5h-0.3H76h-0.3l-0.3,0.1h-0.3h-0.4h-0.3l-0.3,0.1h-0.3l-0.3,0.1h-0.3L73,81.5h-0.4l-0.3,0.1H72
				l-0.3,0.1l-0.2,0.1h-0.3l-0.3,0.1l-0.3,0.1l-0.3,0.1L70,82l-0.2,0.1l-0.3,0.1l-0.3,0.1H69l-0.3,0.1l-0.2,0.1l-0.3,0.1L68,82.6
				l-0.3,0.1L67.4,82.7L67.4,82.7z M67.4,82.7c-1.4,0.4-3-0.3-3.5-1.7c-0.4-1.5,0.3-3,1.7-3.5L67.4,82.7z M58.7,93.8l-5.3-1.3l0,0
				l0.1-0.6l0.1-0.6l0.1-0.6l0.2-0.6l0.2-0.6l0.2-0.5l0.2-0.6l0.2-0.6l0.3-0.5l0.2-0.6l0.3-0.5l0.3-0.6l0.4-0.5l0.3-0.5l0.4-0.5
				l0.4-0.5l0.4-0.4l0.4-0.5l0.4-0.4l0.4-0.4l0.4-0.4l0.4-0.4l0.5-0.4L61,80l0.5-0.4l0.6-0.4l0.5-0.4l0.6-0.3l0.6-0.3l0.6-0.3
				l0.7-0.2l0.6-0.2l1.8,5.2L67,82.9L66.6,83l-0.4,0.2l-0.4,0.1l-0.4,0.2l-0.4,0.2l-0.4,0.3l-0.4,0.2L64,84.7l-0.3,0.2l-0.3,0.3
				l-0.3,0.3l-0.3,0.4l-0.3,0.3l-0.3,0.4l-0.3,0.4l-0.2,0.3l-0.3,0.4L61.1,88l-0.2,0.4l-0.3,0.4l-0.2,0.4l-0.1,0.4L60,90.1l-0.2,0.4
				l-0.1,0.4l-0.2,0.5l-0.1,0.4l-0.1,0.4L59,92.9l-0.1,0.5L58.7,93.8L58.7,93.8z M58.7,93.8c-0.4,1.5-1.9,2.4-3.3,2
				c-1.4-0.4-2.3-1.9-1.9-3.3L58.7,93.8z M58,98.6l-5.4-0.8l0,0v-0.1v-0.1l0.1-0.1v-0.1v-0.1v-0.2l0.1-0.1v-0.1v-0.1l0.1-0.1v-0.2
				v-0.1v-0.1l0.1-0.1v-0.1v-0.2l0.1-0.1v-0.1v-0.1l0.1-0.2v-0.1l0.1-0.1v-0.2v-0.1l0.1-0.1v-0.2l0.1-0.1v-0.1l0.1-0.2v-0.1l0.1-0.2
				l0.1-0.1l5.3,1.3V94v0.1l-0.1,0.1v0.1l-0.1,0.1v0.1v0.1l-0.1,0.1v0.1v0.1l-0.1,0.1v0.1v0.1l-0.1,0.1v0.1v0.1l-0.1,0.1v0.1v0.1
				v0.1l-0.1,0.1V97v0.1l-0.1,0.1v0.1v0.1v0.1L58,98v0.1v0.1L58,98.4V98.6L58,98.6z M58,98.6c-0.2,1.5-1.6,2.5-3.1,2.3
				c-1.5-0.2-2.5-1.6-2.3-3.1L58,98.6z M57.4,103.7H52l0,0v-0.1v-0.2v-0.2v-0.2v-0.1l0.1-0.2v-0.2v-0.1V102v-0.2v-0.1l0.1-0.2v-0.2
				V101v-0.2l0.1-0.1v-0.2v-0.1l0.1-0.2v-0.1v-0.2v-0.1l0.1-0.1v-0.2V99l0.1-0.1v-0.2v-0.1l0.1-0.1v-0.1V98l0.1-0.1l5.4,0.8v0.1
				l-0.1,0.1v0.1v0.1v0.2l-0.1,0.1v0.1v0.1l-0.1,0.1v0.2v0.1l-0.1,0.1v0.1v0.1v0.2l-0.1,0.1v0.1v0.1v0.1v0.2l-0.1,0.1v0.1v0.1v0.1
				v0.1v0.2v0.1l-0.1,0.1v0.1v0.1v0.1V103.7L57.4,103.7z M57.4,103.7c0,1.6-1.2,2.7-2.7,2.7c-1.5,0-2.7-1.2-2.7-2.7H57.4z"/>
			<path class="st2" d="M54.7,103.7c0,7.9,4.6,12.1,11.8,13.3c4.7,0.9,12.3,1.3,16.9,2c1.9,0.2,3.8,0.6,3.8,2.5
				c0,8.7-3.6,7.3-13,7.3c-5.9,0-4.4-4.7-4.4-6.6h-18c0,2.4-0.6,4.9-0.7,7.5v2.7c0.1,1.9,0.7,3.7,1.9,5.6c0.9,1.4,2.4,2.6,4,3.5
				c2.7,1.7,7.8,2.7,12.2,2.7h16.9c9.5,0,17.5-6.5,19.3-15.5c0.7-3.7,1.2-8.5,1.2-12.5c0-3.6-1.8-5.9-4-8.1
				c-5.3-5.3-23.2-4.6-27.4-6.1c-2.1-0.7-1.4-3-1.1-5.1c0.2-1.1,0.7-2.1,1.4-2.5c1.1-0.7,3.6-0.8,5-0.9c1.6-0.1,5.7,0,6.7,0.4
				c2.8,0.9,1.9,3.2,1.9,5.3h17.5c0.7,0,0.5-1.1,0.7-2.8c0.6-5.6,0.8-11.2-4.7-14.9c-2.7-1.8-7.1-3-11.6-3H76.7
				c-3.8,0-7.3,0.7-10.1,1.7c-5.8,1.9-9,7.3-10.4,13c-0.4,1.7-0.6,3.3-0.9,5C55,99.9,54.7,101.8,54.7,103.7z"/>
		</g>
		<g>
			<path class="st0" d="M161.4,146.1h-49.6v-5.5h49.6l2.7,2.7L161.4,146.1z M161.4,140.6c1.5,0,2.7,1.3,2.7,2.7
				c0,1.6-1.3,2.7-2.7,2.7V140.6z M159.6,135.3l5.5,0.5l0,0v0.2l-0.1,0.2v0.2v0.3l-0.1,0.2v0.3l-0.1,0.2v0.3l-0.1,0.3v0.2l-0.1,0.3
				v0.3l-0.1,0.3v0.3l-0.1,0.2v0.3l-0.1,0.3v0.2l-0.1,0.3v0.3l-0.1,0.2v0.2v0.2l-0.1,0.3v0.2v0.1v0.2l-0.1,0.1v0.2v0.1v0.1v0.1h-5.5
				v-0.2v-0.2v-0.2v-0.2l0.1-0.2v-0.3v-0.2l0.1-0.2v-0.3V141l0.1-0.3v-0.3l0.1-0.3v-0.2l0.1-0.3v-0.3l0.1-0.3v-0.3l0.1-0.2v-0.3
				l0.1-0.3v-0.2l0.1-0.3V137l0.1-0.2v-0.2l0.1-0.3v-0.2v-0.2l0.1-0.2v-0.1V135.3L159.6,135.3z M159.6,135.3c0.1-1.5,1.5-2.6,3-2.5
				c1.6,0.1,2.7,1.5,2.5,3L159.6,135.3z M163.2,130.4v-5.5l2.7,2.7v0.3v0.2v0.2v0.3l-0.1,0.2v0.3v0.2l-0.1,0.3v0.2v0.3l-0.1,0.2v0.3
				l-0.1,0.3v0.2l-0.1,0.3v0.3l-0.1,0.2v0.3l-0.1,0.3v0.2l-0.1,0.3v0.2l-0.1,0.3v0.2l-0.1,0.3v0.2v0.2l-0.1,0.2v0.2v0.2l-0.1,0.2
				v0.2l-5.5-0.5v-0.2l0.1-0.2v-0.3l0.1-0.2V134v-0.2l0.1-0.3v-0.3l0.1-0.2v-0.3l0.1-0.2v-0.3l0.1-0.3v-0.2l0.1-0.3v-0.2l0.1-0.3
				v-0.2l0.1-0.3v-0.2l0.1-0.3v-0.2v-0.2l0.1-0.2v-0.2v-0.2v-0.2l0.1-0.1v-0.2v-0.1v-0.1v-0.1L163.2,130.4z M160.5,127.7
				c0-1.5,1.3-2.7,2.7-2.7c1.6,0,2.7,1.3,2.7,2.7H160.5z M132.3,124.9h30.9v5.5h-30.9l-2.7-3.3L132.3,124.9z M132.3,130.4
				c-1.5,0-2.7-1.2-2.7-2.7c0-1.5,1.3-2.7,2.7-2.7V130.4z M130.3,122.5l5.4,0.7l0,0v0.1v0.1v0.1l-0.1,0.1v0.1v0.1v0.1l-0.1,0.1v0.1
				v0.1v0.1v0.1l-0.1,0.2v0.1v0.1v0.1l-0.1,0.1v0.2v0.1v0.1l-0.1,0.1v0.2v0.1l-0.1,0.1v0.2v0.1l-0.1,0.1v0.1v0.2l-0.1,0.1v0.1
				l-0.1,0.2l-5.3-1.3V127v-0.1l0.1-0.1v-0.1v-0.1l0.1-0.1v-0.1v-0.1V126l0.1-0.1v-0.1v-0.1v-0.1l0.1-0.1v-0.1V125v-0.1v-0.1
				l0.1-0.1v-0.1v-0.1v-0.1l0.1-0.2v-0.1v-0.1v-0.1v-0.2l0.1-0.1v-0.1v-0.1L130.3,122.5L130.3,122.5L130.3,122.5z M130.3,122.4
				c0.2-1.5,1.6-2.5,3.1-2.4c1.5,0.2,2.5,1.6,2.3,3.1L130.3,122.4z M136.3,118.2l-0.7,5l-5.4-0.7l0.6-5l2.7-2.4L136.3,118.2z
				 M130.9,117.5c0.2-1.5,1.6-2.6,3-2.4c1.6,0.1,2.6,1.6,2.4,3L130.9,117.5z M154.1,120.6h-20.5v-5.5h20.5l2.7,3L154.1,120.6z
				 M154.1,115.1c1.6,0,2.7,1.2,2.7,2.7c0,1.5-1.2,2.7-2.7,2.7V115.1z M158.5,104.3l-1.6,13.9l-5.5-0.7l1.6-13.8l2.7-2.4
				L158.5,104.3z M153,103.7c0.1-1.6,1.6-2.6,3-2.4c1.5,0.1,2.6,1.6,2.4,3L153,103.7z M135.2,101.2h20.5v5.5h-20.5l-2.7-3
				L135.2,101.2z M135.2,106.7c-1.6,0-2.8-1.3-2.8-2.7c0-1.6,1.3-2.7,2.8-2.7V106.7z M136.3,92.3v5.5L139,95v0.3v0.2v0.3l-0.1,0.2
				v0.3v0.3l-0.1,0.2v0.3l-0.1,0.4v0.3l-0.1,0.3v0.3l-0.1,0.4v0.3l-0.1,0.3l-0.1,0.4v0.3l-0.1,0.4v0.3l-0.1,0.3l-0.1,0.3v0.4
				l-0.1,0.3v0.3l-0.1,0.3v0.2l-0.1,0.3v0.2l-0.1,0.3v0.2v0.1l-0.1,0.2l-5.4-0.4v-0.3v-0.2l0.1-0.3v-0.2l0.1-0.3v-0.3l0.1-0.3v-0.3
				l0.1-0.3v-0.4l0.1-0.3l0.1-0.3v-0.4l0.1-0.3v-0.3l0.1-0.4l0.1-0.3v-0.3l0.1-0.3v-0.4l0.1-0.3v-0.3l0.1-0.2v-0.3l0.1-0.2v-0.3
				v-0.2l0.1-0.2v-0.1v-0.1v-0.1V95L136.3,92.3z M133.5,95c0-1.5,1.3-2.7,2.7-2.7c1.5,0,2.7,1.3,2.7,2.7H133.5z M166.1,97.8h-29.8
				v-5.5h29.8l0,0V97.8z M166.1,92.3c1.5,0,2.7,1.3,2.7,2.7c0,1.6-1.3,2.7-2.7,2.7V92.3z M163.9,93.2l5.5,0.6v0.1l0,0l0,0V94l0,0
				v0.1v0.1v0.1v0.1v0.1v0.1v0.1l-0.1,0.1v0.1v0.1V95l-0.1,0.1v0.1l-0.1,0.2l-0.1,0.2l-0.1,0.1l-0.1,0.3l-0.1,0.2l-0.2,0.2l-0.2,0.3
				l-0.2,0.2l-0.3,0.1l-0.3,0.1l-0.3,0.1l-0.4,0.1l-0.2,0.1h-0.3h-0.2v-5.5h-0.1h-0.1l-0.1,0.1l-0.2,0.1l-0.2,0.1l-0.2,0.1l-0.2,0.1
				l-0.1,0.1l-0.2,0.2l-0.1,0.1l-0.1,0.2l-0.1,0.1l-0.1,0.1l-0.1,0.1v0.1V94v0.1l0,0v0.1v-0.1l0,0l0,0V94l0,0v-0.1v-0.1v-0.1v-0.1
				v-0.1v-0.1V93.2L163.9,93.2L163.9,93.2z M164,93.2c0.1-1.5,1.6-2.5,3-2.4c1.5,0.2,2.6,1.6,2.4,3.1L164,93.2z M170.2,87.8
				l-0.7,6.1l-5.5-0.6l0.7-6.1v-0.1L170.2,87.8z M164.7,87.2c0.1-1.6,1.6-2.6,3-2.4c1.6,0.2,2.6,1.6,2.4,3L164.7,87.2z M168.4,82.1
				v-5.5L171,80l0,0v0.1l-0.1,0.1v0.1v0.1l-0.1,0.2V81l-0.1,0.2v0.2v0.3l-0.1,0.3v0.2l-0.1,0.3v0.3l-0.1,0.3v0.3v0.3l-0.1,0.3v0.3
				l-0.1,0.4V85v0.3l-0.1,0.3v0.2l-0.1,0.3v0.3v0.2l-0.1,0.3v0.2l-0.1,0.2v0.2v0.2l-5.5-0.7V87l0.1-0.2v-0.2v-0.2l0.1-0.2v-0.2
				l0.1-0.3v-0.2V85l0.1-0.3v-0.3l0.1-0.3v-0.3v-0.3l0.1-0.3v-0.4l0.1-0.3v-0.3l0.1-0.3v-0.3v-0.3l0.1-0.3v-0.2l0.1-0.3v-0.3
				l0.1-0.2v-0.2l0.1-0.3v-0.2l0.1-0.2V79l0.1-0.2L168.4,82.1z M165.7,78.7c0.4-1.5,1.8-2.4,3.3-2.1c1.5,0.4,2.4,1.9,2.1,3.3
				L165.7,78.7z M119.5,76.6h48.9v5.5h-48.9l-2.7-3L119.5,76.6z M119.5,82.1c-1.5,0-2.7-1.2-2.7-2.7c0-1.5,1.3-2.7,2.7-2.7V82.1z
				 M116.4,83.1l0.4-4.1l5.4,0.6l-0.4,4.1v0.1L116.4,83.1z M121.8,83.7c-0.1,1.5-1.5,2.6-3,2.4c-1.6-0.1-2.6-1.5-2.4-3L121.8,83.7z
				 M121.3,87.6l-5.5-0.5l0,0V87l0.1-0.1v-0.1v-0.1v-0.1v-0.1v-0.1l0.1-0.1v-0.1v-0.1v-0.1v-0.1l0.1-0.1v-0.1v-0.1V85v-0.1l0.1-0.1
				v-0.1v-0.1v-0.1l0.1-0.1v-0.1v-0.1v-0.1v-0.1l0.1-0.1v-0.1v-0.1v-0.1l0.1-0.1V83l5.4,0.7v0.1V84v0.1l-0.1,0.1v0.1v0.1v0.1
				l-0.1,0.1v0.1V85v0.1v0.1l-0.1,0.1v0.1v0.1v0.1v0.1l-0.1,0.1v0.1v0.1v0.1v0.1v0.1l-0.1,0.1v0.1v0.1V87v0.1v0.1l-0.1,0.1v0.1V87.6
				L121.3,87.6z M121.3,87.6c-0.1,1.5-1.5,2.6-3,2.4c-1.6-0.1-2.7-1.5-2.5-3L121.3,87.6z M119.4,103.6l-5.5-0.7v0.1l0.1-0.5V102
				l0.1-0.5l0.1-0.4l0.1-0.5V100l0.1-0.5l0.1-0.5l0.1-0.4l0.1-0.5l0.1-0.5l0.1-0.5l0.1-0.5l0.1-0.5v-0.5l0.1-0.5l0.1-0.5l0.1-0.5
				l0.1-0.5l0.1-0.5l0.1-0.5l0.1-0.5l0.1-0.5l0.1-0.4v-0.5l0.1-0.5l0.1-0.4l0.1-0.4v-0.5l0.1-0.4l0.1-0.4v-0.4l5.5,0.5l-0.1,0.4v0.5
				l-0.1,0.4l-0.1,0.5V90l-0.1,0.5l-0.1,0.5l-0.1,0.5l-0.1,0.5l-0.1,0.5l-0.1,0.5v0.4l-0.1,0.5l-0.1,0.5l-0.1,0.5l-0.1,0.5l-0.1,0.5
				l-0.1,0.5l-0.1,0.5l-0.1,0.5l-0.1,0.5l-0.1,0.5v0.5l-0.1,0.5l-0.1,0.4l-0.1,0.5l-0.1,0.4v0.5l-0.1,0.4l-0.1,0.5v0.4L119.4,103.6
				L119.4,103.6z M119.4,103.5c-0.1,1.5-1.5,2.6-3,2.4c-1.6-0.1-2.7-1.5-2.5-3L119.4,103.5z M109.1,143l4.8-40.1l5.5,0.7l-4.8,40.1
				l-2.7,2.4L109.1,143z M114.6,143.7c-0.2,1.5-1.6,2.6-3.1,2.4c-1.5-0.1-2.6-1.6-2.4-3L114.6,143.7z"/>
			<path class="st2" d="M111.8,143.3h49.6c0-1.6,0.7-5.6,0.9-7.8c0.2-2.3,0.9-5.8,0.9-7.8h-30.9c0.3-1.4,0.4-3.3,0.7-4.9l0.6-4.9
				h20.5l1.6-13.9h-20.5c0.1-2.2,1-7.1,1-9h29.8c0.7,0,0.5-0.7,0.6-1.5l0.7-6.1c0.2-1.9,0.7-6.7,1-8.1h-48.9l-0.4,4.1
				c-0.2,1.4-0.4,2.5-0.5,3.9c-0.4,4.9-1.5,11-1.9,15.9L111.8,143.3z"/>
		</g>
		<g>
			<path class="st0" d="M433.7,146.3h-38.3v-5.5h38.3l0,0V146.3z M433.7,140.8c1.5,0,2.7,1.2,2.7,2.7c0,1.5-1.3,2.7-2.7,2.7V140.8z
				 M431.8,139.5l5.5,0.7l0,0v0.1v0.1v0.1l-0.1,0.1v0.1v0.1v0.1v0.1v0.1l-0.1,0.1v0.1v0.2v0.1v0.2l-0.1,0.1v0.2l-0.1,0.1v0.2
				l-0.1,0.1v0.2l-0.1,0.2l-0.1,0.2l-0.1,0.2l-0.1,0.2l-0.1,0.3l-0.1,0.3l-0.2,0.3l-0.3,0.3l-0.4,0.4l-0.5,0.3l-0.6,0.1l-0.6,0.1
				v-5.5h-0.5l-0.4,0.1l-0.4,0.2l-0.3,0.2l-0.2,0.2l-0.1,0.1l-0.1,0.1l-0.1,0.1v0.1l0,0l0,0l0,0V142v-0.1v-0.1l0.1-0.1v-0.1v-0.1
				v-0.1v-0.1v-0.1l0.1-0.1v-0.1v-0.1v-0.1v-0.1v-0.1l0.1-0.1V140v-0.2v-0.1V139.5L431.8,139.5z M431.8,139.5c0.2-1.5,1.6-2.6,3-2.4
				c1.6,0.1,2.6,1.5,2.4,3L431.8,139.5z M432.3,135.2l5.5,0.7v-0.1v0.1v0.1l-0.1,0.1v0.1v0.1v0.1v0.1l-0.1,0.1v0.1v0.1v0.1l-0.1,0.1
				v0.1v0.1v0.1l-0.1,0.1v0.1v0.1v0.1v0.1l-0.1,0.1v0.1v0.1v0.1l-0.1,0.1v0.1v0.1v0.1v0.1l-0.1,0.1v0.1v0.1l-5.5-0.7l0.1-0.1v-0.1
				v-0.1V139v-0.1l0.1-0.1v-0.1v-0.1v-0.1l0.1-0.1V138v-0.1v-0.1v-0.1l0.1-0.1v-0.1v-0.1V137l0.1-0.1v-0.1v-0.1v-0.1l0.1-0.1v-0.1
				v-0.1V136v-0.1l0.1-0.1v-0.1v-0.1v-0.1V135.2L432.3,135.2z M432.3,135.2c0.2-1.5,1.6-2.6,3-2.4c1.6,0.1,2.6,1.5,2.4,3
				L432.3,135.2z M438.8,127.5l-1,8.4l-5.5-0.7l1.1-8.4l2.7-2.4L438.8,127.5z M433.4,126.8c0.2-1.5,1.6-2.5,3-2.4
				c1.6,0.2,2.6,1.6,2.4,3.1L433.4,126.8z M416.2,124.4h20v5.5h-20l-2.7-3L416.2,124.4z M416.2,129.9c-1.6,0-2.7-1.2-2.7-2.7
				c0-1.5,1.2-2.7,2.7-2.7V129.9z M419.6,121.5l-0.7,5.9l-5.5-0.6l0.7-5.9L419.6,121.5L419.6,121.5z M414.1,120.9
				c0.1-1.5,1.6-2.6,3-2.4c1.5,0.2,2.6,1.6,2.4,3L414.1,120.9z M414.9,114.8l5.4,0.7l0,0v0.1v0.2l-0.1,0.1v0.2v0.1l-0.1,0.2v0.1v0.2
				v0.1l-0.1,0.2v0.1v0.2l-0.1,0.1v0.2v0.1l-0.1,0.2v0.1v0.2v0.1l-0.1,0.2v0.2v0.1l-0.1,0.2v0.1v0.2l-0.1,0.1v0.2v0.2v0.1l-0.1,0.2
				v0.1v0.2l-5.5-0.6v-0.2l0.1-0.1v-0.2v-0.2l0.1-0.1v-0.2v-0.2v-0.1l0.1-0.2V119v-0.2l0.1-0.2v-0.1v-0.2l0.1-0.1v-0.2v-0.1v-0.2
				l0.1-0.2v-0.1v-0.2l0.1-0.1v-0.2v-0.1l0.1-0.2V116v-0.2v-0.1l0.1-0.2v-0.1V115L414.9,114.8L414.9,114.8z M414.9,114.8
				c0.1-1.6,1.6-2.6,3-2.4c1.5,0.2,2.6,1.6,2.4,3.1L414.9,114.8z M417.7,90.9l5.5,0.7l0,0l-0.1,0.7l-0.1,0.7l-0.1,0.7l-0.1,0.7
				l-0.1,0.7l-0.1,0.7l-0.1,0.7l-0.1,0.7l-0.1,0.7l-0.1,0.7l-0.1,0.7l-0.1,0.7l-0.1,0.7l-0.1,0.7l-0.1,0.7l-0.1,0.7l-0.1,0.8
				l-0.1,0.7l-0.1,0.7l-0.1,0.7l-0.1,0.7l-0.1,0.8l-0.1,0.7l-0.1,0.7l-0.1,0.7l-0.1,0.8l-0.1,0.7l-0.1,0.7l-0.1,0.7l-0.1,0.7
				l-0.1,0.8l-0.1,0.7l-5.4-0.7l0.1-0.7l0.1-0.8l0.1-0.7l0.1-0.7l0.1-0.7l0.1-0.7l0.1-0.7l0.1-0.7l0.1-0.8l0.1-0.7l0.1-0.7l0.1-0.7
				l0.1-0.7l0.1-0.8l0.1-0.7l0.1-0.7l0.1-0.7l0.1-0.7l0.1-0.8l0.1-0.7l0.1-0.7l0.1-0.7l0.1-0.7l0.1-0.7l0.1-0.7l0.1-0.7l0.1-0.7
				l0.1-0.7l0.1-0.7l0.1-0.7l0.1-0.7L417.7,90.9L417.7,90.9z M417.7,90.9c0.2-1.5,1.6-2.6,3.1-2.4c1.5,0.2,2.5,1.6,2.4,3.1
				L417.7,90.9z M421.9,81.9v-5.5l2.7,3.3v0.1l-0.1,0.1v0.1v0.2l-0.1,0.3l-0.1,0.3v0.3l-0.1,0.4V82l-0.1,0.4l-0.1,0.4v0.4l-0.1,0.4
				l-0.1,0.4l-0.1,0.5v0.4l-0.1,0.4l-0.1,0.5v0.4l-0.1,0.5l-0.1,0.4l-0.1,0.4v0.4l-0.1,0.4l-0.1,0.4v0.4l-0.1,0.4v0.4l-0.1,0.4V91
				l-0.1,0.3v0.3l-5.5-0.7v-0.2l0.1-0.3v-0.3l0.1-0.3l0.1-0.4V89l0.1-0.4v-0.4l0.1-0.4l0.1-0.4v-0.4l0.1-0.5l0.1-0.4l0.1-0.5V85
				l0.1-0.4l0.1-0.5v-0.4l0.1-0.4l0.1-0.5l0.1-0.4v-0.4l0.1-0.4l0.1-0.4v-0.4l0.1-0.4l0.1-0.3v-0.4l0.1-0.2V79l0.1-0.2l0.1-0.3
				L421.9,81.9z M419.2,78.5c0.3-1.5,1.8-2.4,3.3-2c1.5,0.3,2.4,1.8,2.1,3.3L419.2,78.5z M403,76.4h18.9v5.5H403l-2.7-2.7L403,76.4z
				 M403,81.9c-1.5,0-2.7-1.3-2.7-2.7c0-1.6,1.3-2.7,2.7-2.7V81.9z M405.3,83.5l-5.5-0.7l0,0l0.1-0.1v-0.1v-0.1v-0.1l0.1-0.1V82
				v-0.1v-0.1l0.1-0.1v-0.1v-0.1v-0.1l0.1-0.1V81v-0.1v-0.1l0.1-0.1v-0.1v-0.1v-0.1v-0.1v-0.1l0.1-0.1v-0.1v-0.1v-0.1v-0.1v-0.1
				v-0.1v-0.1v-0.1v-0.1h5.5v0.1v0.1v0.1v0.1v0.1v0.1v0.1v0.1l-0.1,0.1v0.1v0.1V81v0.1l-0.1,0.1v0.1v0.1v0.1l-0.1,0.1v0.1v0.1
				l-0.1,0.1v0.1v0.1v0.1l-0.1,0.1v0.1V83v0.1l-0.1,0.1v0.1v0.1V83.5L405.3,83.5z M405.3,83.5c-0.2,1.5-1.6,2.5-3.1,2.4
				c-1.5-0.2-2.5-1.6-2.4-3.1L405.3,83.5z M400.9,119.7l-5.4-0.7l0,0l0.1-1.1l0.1-1.1l0.1-1.1l0.1-1.1l0.1-1.1l0.1-1.1l0.1-1.2
				l0.1-1.1l0.1-1.1l0.1-1.2l0.1-1.1l0.1-1.2l0.1-1.1l0.1-1.2l0.1-1.1l0.1-1.2l0.1-1.2l0.1-1.1l0.1-1.2l0.1-1.1l0.1-1.2l0.1-1.1
				l0.1-1.1l0.1-1.2l0.1-1.1l0.1-1.1l0.1-1.1l0.1-1.2l0.1-1.1l0.1-1.1l0.1-1l0.1-1.1l5.5,0.7l-0.1,1l-0.1,1.1l-0.1,1.1l-0.1,1.1
				l-0.1,1.1l-0.1,1.1l-0.1,1.1l-0.1,1.1l-0.1,1.2l-0.1,1.1l-0.1,1.1l-0.1,1.2l-0.1,1.1l-0.1,1.1l-0.1,1.2l-0.1,1.1l-0.1,1.2
				l-0.1,1.2l-0.1,1.1l-0.1,1.2l-0.1,1.1l-0.1,1.2l-0.1,1.1l-0.1,1.1l-0.1,1.2l-0.1,1.1l-0.1,1.1l-0.1,1.2l-0.1,1.1l-0.1,1.1
				l-0.1,1.1L400.9,119.7L400.9,119.7z M400.9,119.7c-0.1,1.5-1.6,2.6-3,2.4c-1.5-0.1-2.6-1.6-2.4-3L400.9,119.7z M392.6,143.2
				l2.9-24.2l5.4,0.7l-2.9,24.2l-2.7,2.4L392.6,143.2z M398,143.9c-0.1,1.6-1.5,2.6-3,2.4c-1.5-0.2-2.6-1.6-2.4-3.1L398,143.9z"/>
			<path class="st1" d="M395.3,143.6h38.3c0.7,0,0.7-2.4,0.9-3.8c0.1-1.3,0.4-2.8,0.5-4.3l1.1-8.4h-20l0.7-5.9
				c0.2-2.1,0.4-4.1,0.7-6.1c1-7.9,1.8-16.2,2.8-23.9c0.3-2.5,1.1-10.7,1.5-12.1H403c0,1.2-0.3,2.7-0.4,4
				c-1.6,11.5-2.9,24.4-4.3,36.1L395.3,143.6z"/>
		</g>
		<g>
			<path class="st0" d="M388.9,146.1h-38.7v-5.5h38.7l2.7,3.1L388.9,146.1z M388.9,140.6c1.5,0,2.7,1.3,2.7,2.7
				c0,1.6-1.3,2.7-2.7,2.7V140.6z M392.6,135.6l-1,8.1l-5.5-0.7l1-8.1v-0.1L392.6,135.6z M387.1,134.9c0.2-1.5,1.6-2.6,3-2.4
				c1.6,0.1,2.6,1.6,2.4,3L387.1,134.9z M387.6,130.8l5.4,0.7l0,0v0.1v0.1v0.1v0.1l-0.1,0.1v0.1v0.1v0.1v0.1l-0.1,0.1v0.1v0.1v0.1
				v0.1l-0.1,0.1v0.1v0.1v0.1v0.1l-0.1,0.1v0.1v0.1v0.1v0.1l-0.1,0.1v0.1v0.1v0.1l-0.1,0.1v0.1v0.1v0.1l-5.5-0.8v-0.1l0.1-0.1v-0.1
				v-0.1v-0.1l0.1-0.1v-0.1v-0.1v-0.1v-0.1l0.1-0.1v-0.1v-0.1v-0.1V133l0.1-0.1v-0.1v-0.1v-0.1v-0.1l0.1-0.1v-0.1V132v-0.1v-0.1
				v-0.1l0.1-0.1v-0.1v-0.1v-0.1v-0.1L387.6,130.8L387.6,130.8z M387.6,130.8c0.1-1.6,1.5-2.7,3-2.4c1.5,0.1,2.6,1.5,2.4,3
				L387.6,130.8z M390.8,129.7v-5.5l2.7,2.7v0.1v0.1v0.1v0.1v0.2v0.1v0.1l-0.1,0.1v0.1v0.1v0.1l-0.1,0.1v0.1v0.1v0.1l-0.1,0.1v0.1
				v0.1l-0.1,0.1v0.1v0.1l-0.1,0.1v0.1v0.1v0.1l-0.1,0.1v0.1v0.1v0.1v0.1v0.1l-0.1,0.1l-5.4-0.7v-0.1v-0.1v-0.1l0.1-0.1v-0.1V130
				v-0.1l0.1-0.1v-0.1v-0.1l0.1-0.1v-0.1v-0.1v-0.1l0.1-0.1v-0.1v-0.1v-0.1l0.1-0.1v-0.1V128v-0.1v-0.1l0.1-0.1v-0.1v-0.1v-0.1v-0.1
				v-0.1v-0.1V127l0,0L390.8,129.7z M388.1,127c0-1.6,1.3-2.7,2.7-2.7c1.6,0,2.7,1.2,2.7,2.7H388.1z M370.8,124.2h20v5.5h-20l-2.7-3
				L370.8,124.2z M370.8,129.7c-1.5,0-2.7-1.3-2.7-2.7c0-1.6,1.3-2.7,2.7-2.7V129.7z M369.6,114.8l5.5,0.4l0,0l-0.1,0.4v0.4
				l-0.1,0.4v0.4l-0.1,0.4v0.4l-0.1,0.4l-0.1,0.4v0.4l-0.1,0.4l-0.1,0.4l-0.1,0.4v0.4l-0.1,0.4l-0.1,0.4v0.4l-0.1,0.4l-0.1,0.4
				l-0.1,0.4v0.4l-0.1,0.4l-0.1,0.4v0.4l-0.1,0.4v0.4l-0.1,0.4l-0.1,0.4v0.4l-0.1,0.3v0.3v0.4l-0.1,0.3l-5.5-0.4l0.1-0.4V126
				l0.1-0.4v-0.3l0.1-0.4v-0.4l0.1-0.4l0.1-0.4v-0.4l0.1-0.4l0.1-0.4v-0.4l0.1-0.4l0.1-0.4v-0.4l0.1-0.4l0.1-0.4l0.1-0.4v-0.4
				l0.1-0.4l0.1-0.4v-0.4l0.1-0.4l0.1-0.4v-0.4l0.1-0.4v-0.4l0.1-0.4v-0.4l0.1-0.3v-0.4L369.6,114.8L369.6,114.8z M369.6,114.8
				c0.1-1.5,1.4-2.6,3-2.5c1.5,0.1,2.6,1.5,2.5,3L369.6,114.8z M370.3,108.8l5.5,0.7l0,0v0.1l-0.1,0.2v0.2v0.1v0.2l-0.1,0.1v0.2v0.1
				l-0.1,0.2v0.1v0.2l-0.1,0.1v0.2v0.1l-0.1,0.2v0.1v0.2l-0.1,0.1v0.2v0.1l-0.1,0.2v0.1v0.2l-0.1,0.1v0.1v0.2v0.1l-0.1,0.1v0.2v0.1
				v0.1v0.1l-5.5-0.4v-0.1v-0.2v-0.2l0.1-0.1v-0.2v-0.2l0.1-0.1v-0.2v-0.1v-0.2l0.1-0.1v-0.2v-0.2l0.1-0.1v-0.2v-0.1l0.1-0.2v-0.1
				v-0.2l0.1-0.1v-0.2v-0.1l0.1-0.2v-0.1V110l0.1-0.1v-0.2v-0.1l0.1-0.1v-0.2V109V108.8L370.3,108.8z M370.3,108.8
				c0.2-1.5,1.6-2.5,3-2.4c1.6,0.1,2.6,1.5,2.4,3L370.3,108.8z M378.9,82.4l-3.2,27.1l-5.5-0.7l3.3-27.1L378.9,82.4L378.9,82.4z
				 M373.5,81.7c0.1-1.5,1.6-2.6,3-2.4c1.5,0.2,2.6,1.6,2.4,3.1L373.5,81.7z M376.5,81.7v-5.5l2.8,2.7v0.1l-0.1,0.1v0.1v0.1v0.1v0.1
				v0.1V80v0.1l-0.1,0.1v0.1v0.1v0.1v0.1l-0.1,0.1v0.1V81v0.1v0.1l-0.1,0.1v0.1v0.1v0.1v0.1l-0.1,0.1v0.1v0.1V82v0.1v0.1l0,0
				l-0.1,0.1l-5.4-0.6v-0.1v-0.1v-0.1l0.1-0.1v-0.1v-0.1V81v-0.1l0.1-0.1v-0.1v-0.1v-0.1v-0.1l0.1-0.1v-0.1v-0.1V80v-0.1v-0.1
				l0.1-0.1v-0.1v-0.1v-0.1v-0.1v-0.1v-0.1v-0.1v-0.1v-0.1l0,0V79V79L376.5,81.7z M373.8,79c0-1.5,1.3-2.7,2.7-2.7
				c1.6,0,2.8,1.3,2.8,2.7H373.8z M358.2,76.2h18.4v5.5h-18.4l0,0V76.2z M358.2,81.7c-1.5,0-2.7-1.2-2.7-2.7c0-1.5,1.3-2.7,2.7-2.7
				V81.7z M360,82.9l-5.5-0.7l0,0l0.1-0.1V82v-0.1v-0.1v-0.1v-0.1l0.1-0.1v-0.1V81v-0.1v-0.1v-0.2l0.1-0.1v-0.1V80v-0.1l0.1-0.2
				v-0.1l0.1-0.2V79l0.1-0.1l0.1-0.2l0.1-0.3l0.1-0.2l0.1-0.3l0.1-0.3l0.3-0.3l0.3-0.3l0.4-0.3l0.5-0.2l0.5-0.1l0.5-0.1v5.5h0.4
				l0.4-0.1l0.4-0.1l0.3-0.2l0.2-0.1l0.1-0.2l0.1-0.1l0.1-0.1v-0.1v-0.1l0,0l0,0v0.1l0,0v0.1v0.1v0.1l-0.1,0.1v0.1V81v0.1v0.1v0.1
				v0.1l-0.1,0.1v0.1v0.2v0.1v0.1v0.1l-0.1,0.2V82.9L360,82.9z M360,82.9c-0.1,1.5-1.6,2.6-3,2.4c-1.5-0.2-2.6-1.6-2.4-3.1L360,82.9
				z M355.7,119.2l-5.5-0.6l0,0l0.1-1.1l0.1-1.2l0.1-1.1l0.1-1.1l0.1-1.2l0.1-1.1l0.1-1.1l0.1-1.2l0.1-1.1l0.1-1.1l0.1-1.2l0.1-1.1
				l0.1-1.2l0.1-1.1l0.1-1.2l0.1-1.1l0.1-1.1l0.1-1.2l0.1-1.1l0.1-1.2l0.1-1.1l0.1-1.1l0.1-1.2l0.1-1.1l0.1-1.2l0.1-1.1l0.1-1.1
				l0.1-1.2l0.1-1.1l0.1-1.1l0.1-1.1l0.1-1.2l5.5,0.7l-0.1,1.1l-0.1,1.2l-0.1,1.1l-0.1,1.1l-0.1,1.2l-0.1,1.1l-0.1,1.1L359,92
				l-0.1,1.1l-0.1,1.2l-0.1,1.1l-0.1,1.1l-0.1,1.2l-0.1,1.1L358,100l-0.1,1.1l-0.1,1.1l-0.1,1.2l-0.1,1.1l-0.1,1.2l-0.1,1.1
				l-0.1,1.1l-0.1,1.2l-0.1,1.1l-0.1,1.1l-0.1,1.2l-0.1,1.1l-0.1,1.1l-0.1,1.1L356,117l-0.1,1.1L355.7,119.2L355.7,119.2z
				 M355.7,119.2c-0.2,1.5-1.6,2.6-3,2.4c-1.6-0.2-2.6-1.6-2.4-3L355.7,119.2z M350.2,140.6v5.5l-2.7-2.7V143v-0.4l0.1-0.5v-0.5
				l0.1-0.7l0.1-0.7l0.1-0.7l0.1-0.7l0.1-0.9l0.1-0.8l0.1-0.9l0.1-1l0.1-1l0.1-1l0.1-1l0.1-1l0.1-1l0.1-1l0.1-1l0.1-1l0.1-1l0.1-0.9
				l0.1-0.9l0.1-0.9l0.1-0.8l0.1-0.8l0.1-0.7l0.1-0.7l0.1-0.6l0.1-0.5V119l0.1-0.4l5.5,0.6l-0.1,0.4l-0.1,0.5l-0.1,0.5l-0.1,0.6
				l-0.1,0.7l-0.1,0.7l-0.1,0.8l-0.1,0.8l-0.1,0.9l-0.1,0.9l-0.1,1l-0.1,1l-0.1,1l-0.1,1l-0.1,1l-0.1,1l-0.1,1l-0.1,1l-0.1,1l-0.1,1
				l-0.1,0.9l-0.1,0.9l-0.1,0.9l-0.1,0.8l-0.1,0.7l-0.1,0.7l-0.1,0.6l-0.1,0.6l-0.1,0.5v0.4v0.3v0.1L350.2,140.6z M352.9,143.3
				c0,1.6-1.3,2.7-2.7,2.7c-1.6,0-2.7-1.2-2.7-2.7H352.9z"/>
			<path class="st1" d="M350.2,143.3h38.7l1-8.1c0.2-1.5,0.3-2.7,0.5-4.1c0.1-1.2,0.4-3,0.4-4.1h-20c0.3-3.4,1.2-8.4,1.5-12
				c0.1-1.9,0.4-3.9,0.7-5.8l3.3-27.2c0.1-0.9,0.3-2.1,0.3-3h-18.4c-0.7,0-0.7,2.1-0.9,3.6c-1.4,12-3,24.3-4.3,36.3
				C352.6,122.6,350.2,140.7,350.2,143.3z"/>
		</g>
		<path class="st3" d="M58.6,65.8v-10H66v1.6h-5.4v2.2h5v1.7h-5v2.7h5.6v1.7H58.6z M66.9,65.8l3.5-5.3l-3.1-4.7h2.4l1.9,3l2-3h2.4
			l-3.2,4.7l3.5,5.3h-2.4l-2.2-3.4l-2.2,3.4H66.9z M77.3,65.8v-10h3.3c1.3,0,2,0,2.4,0.1c0.6,0.1,1.1,0.4,1.5,1S85,58,85,58.8
			c0,0.7-0.1,1.1-0.4,1.6c-0.2,0.4-0.5,0.7-0.8,1c-0.4,0.3-0.7,0.4-1,0.5c-0.5,0.1-1.2,0.1-2.1,0.1h-1.3v3.8H77.3z M79.4,57.4v2.9h1
			c0.8,0,1.3-0.1,1.6-0.1c0.3-0.1,0.4-0.3,0.7-0.5c0.1-0.2,0.2-0.4,0.2-0.7c0-0.4-0.1-0.7-0.4-1c-0.2-0.2-0.4-0.4-0.8-0.4
			c-0.2,0-0.7-0.1-1.4-0.1H79.4z M86.6,65.8v-10H94v1.6h-5.3v2.2h5v1.7h-5v2.7h5.6v1.7H86.6z M95.9,65.8v-10h4.3
			c1,0,1.9,0.1,2.3,0.2c0.5,0.2,0.9,0.5,1.2,1s0.4,1,0.4,1.6c0,0.8-0.2,1.4-0.7,1.9c-0.4,0.4-1.1,0.7-2,0.9c0.4,0.3,0.8,0.5,1.1,0.8
			c0.3,0.4,0.7,0.9,1.2,1.6l1.2,2h-2.4l-1.4-2.2c-0.5-0.7-0.9-1.3-1.1-1.5c-0.1-0.1-0.4-0.3-0.6-0.4c-0.2-0.1-0.5-0.1-1-0.1H98v4.2
			H95.9z M98,60h1.5c1,0,1.6-0.1,1.8-0.1c0.3-0.1,0.4-0.2,0.6-0.4c0.1-0.1,0.2-0.4,0.2-0.7c0-0.3-0.1-0.6-0.3-0.8
			c-0.1-0.2-0.4-0.3-0.7-0.4c-0.1,0-0.7-0.1-1.5-0.1H98V60z M108.3,65.8v-8.4h-3v-1.6h8v1.6h-3v8.4H108.3z M114.5,65.8v-10h2.1v10
			H114.5z M118,62.5l1.9-0.2c0.1,0.7,0.4,1.2,0.7,1.5c0.4,0.3,0.8,0.4,1.5,0.4c0.6,0,1.1-0.1,1.4-0.4c0.4-0.3,0.5-0.6,0.5-1
			c0-0.3-0.1-0.4-0.2-0.7c-0.1-0.1-0.4-0.3-0.7-0.4c-0.3-0.1-0.8-0.2-1.6-0.4c-1.1-0.3-1.9-0.6-2.3-1c-0.6-0.5-0.9-1.2-0.9-2
			c0-0.5,0.1-1,0.4-1.4c0.3-0.4,0.7-0.8,1.3-1c0.6-0.2,1.3-0.4,2-0.4c1.3,0,2.2,0.3,2.8,0.8c0.7,0.6,1,1.3,1,2.2l-2.1,0.1
			c-0.1-0.5-0.2-0.9-0.5-1.1c-0.3-0.2-0.7-0.3-1.3-0.3c-0.6,0-1,0.1-1.4,0.4c-0.2,0.1-0.3,0.4-0.3,0.6c0,0.2,0.1,0.4,0.3,0.6
			c0.2,0.2,0.9,0.4,1.9,0.7c1,0.3,1.7,0.5,2.1,0.7c0.5,0.3,0.9,0.6,1.1,1c0.3,0.4,0.4,1,0.4,1.6c0,0.6-0.2,1.2-0.5,1.6
			c-0.3,0.5-0.7,0.9-1.3,1.1c-0.6,0.3-1.3,0.4-2.2,0.4c-1.3,0-2.2-0.3-2.9-0.9C118.5,64.5,118.1,63.6,118,62.5z M127.8,65.8v-10h7.4
			v1.6h-5.4v2.2h5v1.7h-5v2.7h5.6v1.7H127.8z M141.2,68.7V55.6h1.5v13.2H141.2z M148.3,62.5l1.9-0.2c0.1,0.7,0.4,1.2,0.7,1.5
			c0.4,0.3,0.8,0.4,1.5,0.4c0.6,0,1.1-0.1,1.5-0.4c0.3-0.3,0.4-0.6,0.4-1c0-0.3-0.1-0.4-0.2-0.7c-0.1-0.1-0.4-0.3-0.7-0.4
			c-0.3-0.1-0.8-0.2-1.6-0.4c-1.1-0.3-1.9-0.6-2.3-1c-0.6-0.5-0.9-1.2-0.9-2c0-0.5,0.1-1,0.4-1.4c0.2-0.4,0.7-0.8,1.2-1
			c0.6-0.2,1.3-0.4,2-0.4c1.3,0,2.2,0.3,2.8,0.8c0.7,0.6,1,1.3,1,2.2l-2.1,0.1c-0.1-0.5-0.2-0.9-0.5-1.1s-0.7-0.3-1.3-0.3
			c-0.6,0-1,0.1-1.4,0.4c-0.2,0.1-0.3,0.4-0.3,0.6c0,0.2,0.1,0.4,0.3,0.6c0.2,0.2,0.9,0.4,1.9,0.7c1,0.3,1.7,0.5,2.1,0.7
			c0.5,0.3,0.9,0.6,1.1,1c0.3,0.4,0.4,1,0.4,1.6c0,0.6-0.2,1.2-0.5,1.6c-0.3,0.5-0.7,0.9-1.3,1.1c-0.6,0.3-1.3,0.4-2.2,0.4
			c-1.3,0-2.2-0.3-2.9-0.9C148.8,64.5,148.4,63.6,148.3,62.5z M167.2,65.8H165l-0.8-2.3h-4.1l-0.8,2.3h-2.1l3.9-10h2.1L167.2,65.8z
			 M163.5,61.8l-1.4-3.7l-1.3,3.7H163.5z M168.2,65.8v-10h6.9v1.6h-4.8v2.4h4.1v1.6h-4.1v4.3H168.2z M176.8,65.8v-10h7.4v1.6h-5.4
			v2.2h5v1.7h-5v2.7h5.6v1.7H176.8z M188.4,65.8v-8.4h-3v-1.6h8v1.6h-3v8.4H188.4z M197.3,65.8v-4.2l-3.7-5.8h2.4l2.4,3.9l2.3-3.9
			h2.4l-3.7,5.8v4.2H197.3z M207.8,68.7V55.6h1.5v13.2H207.8z M217.7,65.8v-8.4h-3v-1.6h8v1.6h-3v8.4H217.7z M224,65.8v-10h4.3
			c1,0,1.9,0.1,2.3,0.2c0.5,0.2,0.9,0.5,1.2,1c0.3,0.4,0.4,1,0.4,1.6c0,0.8-0.2,1.4-0.7,1.9c-0.4,0.4-1.1,0.7-2,0.9
			c0.4,0.3,0.8,0.5,1.1,0.8c0.3,0.4,0.7,0.9,1.1,1.6l1.3,2h-2.4l-1.4-2.2c-0.5-0.7-0.9-1.3-1.1-1.5c-0.1-0.1-0.4-0.3-0.6-0.4
			c-0.2-0.1-0.5-0.1-1-0.1H226v4.2H224z M226,60h1.5c1,0,1.6-0.1,1.8-0.1c0.3-0.1,0.4-0.2,0.6-0.4c0.1-0.1,0.2-0.4,0.2-0.7
			c0-0.3-0.1-0.6-0.3-0.8c-0.1-0.2-0.4-0.3-0.7-0.4c-0.1,0-0.7-0.1-1.5-0.1H226V60z M234.1,55.8h2v5.4c0,0.9,0.1,1.4,0.1,1.6
			c0.1,0.4,0.3,0.8,0.6,1c0.4,0.2,0.8,0.4,1.3,0.4c0.6,0,1-0.1,1.3-0.4c0.3-0.2,0.4-0.5,0.5-0.9c0-0.3,0.1-0.9,0.1-1.7v-5.5h2v5.3
			c0,1.2,0,2-0.1,2.5c-0.1,0.5-0.3,1-0.6,1.3c-0.3,0.4-0.7,0.6-1.2,0.8s-1.1,0.3-1.9,0.3c-1,0-1.7-0.1-2.1-0.3
			c-0.5-0.2-0.9-0.5-1.2-0.9c-0.3-0.4-0.4-0.7-0.6-1.1c-0.1-0.6-0.1-1.4-0.1-2.5V55.8z M243.6,62.5l2-0.2c0.1,0.7,0.4,1.2,0.7,1.5
			c0.4,0.3,0.9,0.4,1.5,0.4c0.7,0,1.2-0.1,1.5-0.4c0.3-0.3,0.5-0.6,0.5-1c0-0.3-0.1-0.4-0.2-0.7c-0.1-0.1-0.4-0.3-0.7-0.4
			c-0.2-0.1-0.7-0.2-1.6-0.4c-1-0.3-1.9-0.6-2.2-1c-0.7-0.5-1-1.2-1-2c0-0.5,0.1-1,0.4-1.4s0.7-0.8,1.3-1c0.5-0.2,1.2-0.4,1.9-0.4
			c1.3,0,2.2,0.3,2.9,0.8c0.6,0.6,1,1.3,1,2.2l-2,0.1c-0.1-0.5-0.3-0.9-0.6-1.1s-0.7-0.3-1.3-0.3c-0.6,0-1,0.1-1.3,0.4
			c-0.2,0.1-0.4,0.4-0.4,0.6c0,0.2,0.1,0.4,0.3,0.6c0.3,0.2,0.9,0.4,1.9,0.7c1,0.3,1.7,0.5,2.2,0.7c0.4,0.3,0.8,0.6,1.1,1
			c0.2,0.4,0.4,1,0.4,1.6c0,0.6-0.1,1.2-0.4,1.6c-0.4,0.5-0.8,0.9-1.4,1.1c-0.6,0.3-1.3,0.4-2.1,0.4c-1.3,0-2.2-0.3-3-0.9
			C244.2,64.5,243.8,63.6,243.6,62.5z M255.8,65.8v-8.4h-3v-1.6h7.9v1.6h-3v8.4H255.8z"/>
		<text transform="matrix(1 0 0 1 439.6631 90.2808)" class="st4 st5 st6"></text>
	</g>
</g>
</svg>
